<?xml version="1.0" encoding="UTF-8"?>
<svg version="1.1" xmlns="http://www.w3.org/2000/svg" width="201" height="186">
<path d="M0 0 C6.40753786 5.15723929 9.85491636 11.5904248 13.5625 18.8125 C14.77435208 21.11869325 15.98660436 23.42467624 17.19921875 25.73046875 C17.82487994 26.93008562 18.45036641 28.12979362 19.07568359 29.32958984 C22.27997661 35.46122623 25.58552009 41.53880655 28.875 47.625 C30.06028596 49.82531072 31.24521848 52.0258119 32.4296875 54.2265625 C32.92710449 55.15033691 33.42452148 56.07411133 33.93701172 57.02587891 C34.28779785 57.67733887 34.63858398 58.32879883 35 59 C38.13236146 57.79652627 41.07245926 56.49534839 43.98828125 54.8359375 C44.69404297 54.43632813 45.39980469 54.03671875 46.12695312 53.625 C46.84818359 53.2125 47.56941406 52.8 48.3125 52.375 C49.05306641 51.95476562 49.79363281 51.53453125 50.55664062 51.1015625 C52.37269011 50.07051505 54.18656533 49.03563954 56 48 C57.19662526 51.58987578 56.72375247 52.48733607 55.46459961 55.97119141 C55.10349594 56.98299469 54.74239227 57.99479797 54.37034607 59.03726196 C53.9684053 60.13098114 53.56646454 61.22470032 53.15234375 62.3515625 C52.74343399 63.48016693 52.33452423 64.60877136 51.91322327 65.77157593 C51.04259184 68.16566001 50.16716044 70.55800307 49.28735352 72.94873047 C47.95254772 76.58401816 46.64039085 80.22691769 45.33007812 83.87109375 C44.4805375 86.19841752 43.62966724 88.52525645 42.77734375 90.8515625 C42.3895726 91.93313629 42.00180145 93.01471008 41.60227966 94.12905884 C38.18732933 103.31520566 34.07717082 112.43220507 24.95922852 117.02880859 C18.20296638 120.01366882 12.51320832 120.52136929 5.1875 120.3125 C3.52678467 120.28820923 3.52678467 120.28820923 1.83251953 120.26342773 C-1.77938669 120.20120561 -5.38906805 120.10402056 -9 120 C-10.93286865 119.95069336 -10.93286865 119.95069336 -12.90478516 119.90039062 C-19.20051377 119.73575581 -25.49542025 119.5478712 -31.7890625 119.31640625 C-32.79662598 119.27974854 -33.80418945 119.24309082 -34.84228516 119.20532227 C-38.57527843 118.962594 -42.28801117 118.4639986 -46 118 C-46 126.25 -46 134.5 -46 143 C-53.30977803 135.69022197 -60.04738902 128.03275149 -66.5390625 119.9921875 C-68.84887829 117.18374481 -71.21373967 114.43666821 -73.6027832 111.69604492 C-82.53399719 101.43292288 -89.78946297 93.01360422 -89.48046875 78.78515625 C-87.79451246 65.50311038 -76.95747879 52.82350813 -69.82958984 41.83349609 C-66.89324414 37.28596096 -64.00932977 32.70563505 -61.125 28.125 C-60.12768316 26.54422099 -59.13029544 24.9634867 -58.1328125 23.3828125 C-57.42898437 22.26648438 -56.72515625 21.15015625 -56 20 C-60.27953744 16.57857032 -65.04590206 13.96710629 -69.77539062 11.22851562 C-74.89278092 8.21443815 -74.89278092 8.21443815 -76 6 C-62.77182975 3.28630544 -49.52557076 0.65939764 -36.25 -1.8125 C-35.12239258 -2.03123779 -33.99478516 -2.24997559 -32.83300781 -2.4753418 C-21.96191875 -4.46346781 -9.78267096 -6.3159963 0 0 Z " fill="#080302" transform="translate(122,28)"/>
<path d="M0 0 C6.40753786 5.15723929 9.85491636 11.5904248 13.5625 18.8125 C14.77435208 21.11869325 15.98660436 23.42467624 17.19921875 25.73046875 C17.82487994 26.93008562 18.45036641 28.12979362 19.07568359 29.32958984 C22.27997661 35.46122623 25.58552009 41.53880655 28.875 47.625 C30.06028596 49.82531072 31.24521848 52.0258119 32.4296875 54.2265625 C32.92710449 55.15033691 33.42452148 56.07411133 33.93701172 57.02587891 C34.28779785 57.67733887 34.63858398 58.32879883 35 59 C38.13236146 57.79652627 41.07245926 56.49534839 43.98828125 54.8359375 C44.69404297 54.43632813 45.39980469 54.03671875 46.12695312 53.625 C46.84818359 53.2125 47.56941406 52.8 48.3125 52.375 C49.05306641 51.95476562 49.79363281 51.53453125 50.55664062 51.1015625 C52.37269011 50.07051505 54.18656533 49.03563954 56 48 C57.19662526 51.58987578 56.72375247 52.48733607 55.46459961 55.97119141 C54.92294411 57.48889633 54.92294411 57.48889633 54.37034607 59.03726196 C53.9684053 60.13098114 53.56646454 61.22470032 53.15234375 62.3515625 C52.74343399 63.48016693 52.33452423 64.60877136 51.91322327 65.77157593 C51.04259184 68.16566001 50.16716044 70.55800307 49.28735352 72.94873047 C47.95254772 76.58401816 46.64039085 80.22691769 45.33007812 83.87109375 C44.4805375 86.19841752 43.62966724 88.52525645 42.77734375 90.8515625 C42.3895726 91.93313629 42.00180145 93.01471008 41.60227966 94.12905884 C38.17586008 103.34605773 34.07730973 112.30927649 25.02294922 117.03100586 C17.74226041 120.3208941 11.27545034 120.47899856 3.375 120.25 C2.18003906 120.23195313 0.98507813 120.21390625 -0.24609375 120.1953125 C-3.16492527 120.1486112 -6.08201761 120.0831334 -9 120 C-9 119.67 -9 119.34 -9 119 C-8.30962646 118.98541748 -7.61925293 118.97083496 -6.90795898 118.95581055 C-3.7506034 118.88089383 -0.59425499 118.78437783 2.5625 118.6875 C3.64853516 118.66494141 4.73457031 118.64238281 5.85351562 118.61914062 C11.96014631 118.41496756 16.5869075 117.89681995 22 115 C21.46705322 115.16153564 20.93410645 115.32307129 20.38500977 115.48950195 C15.02954811 116.63580867 9.39564385 116.193267 3.9375 116.1875 C3.24624023 116.1882251 2.55498047 116.1889502 1.84277344 116.18969727 C-15.14141785 116.18775221 -32.06059911 115.14967775 -49 114 C-45.76733025 111.3091852 -42.57222803 109.06115192 -38.88671875 107.0390625 C-37.89873291 106.49258057 -36.91074707 105.94609863 -35.89282227 105.38305664 C-34.83506592 104.80289795 -33.77730957 104.22273926 -32.6875 103.625 C-24.09074876 98.86152146 -15.54077114 94.03396262 -7.0625 89.0625 C1.77267916 83.8831805 10.62656591 78.73839828 19.5 73.625 C20.37239822 73.12215988 20.37239822 73.12215988 21.26242065 72.60916138 C24.50781976 70.73864049 27.75368154 68.86892482 31 67 C31 66.34 31 65.68 31 65 C30.2879541 64.59386475 29.5759082 64.18772949 28.84228516 63.76928711 C6.37145893 50.94909319 -16.06284341 38.06837435 -38.40136719 25.01855469 C-47.58608248 19.65334814 -56.79006816 14.32177665 -66 9 C-63.26724407 6.26724407 -61.15281609 6.35878099 -57.34765625 5.78125 C-56.69171982 5.67784302 -56.03578339 5.57443604 -55.35997009 5.46789551 C-53.26193479 5.13749085 -51.16250814 4.81760791 -49.0625 4.5 C-46.30197875 4.08144178 -43.54325867 3.6529257 -40.78515625 3.21875 C-39.55676025 3.03248047 -38.32836426 2.84621094 -37.06274414 2.65429688 C-33.84664509 2.16399657 -33.84664509 2.16399657 -31 0 C-31.99 -0.66 -32.98 -1.32 -34 -2 C-22.79218709 -4.51558125 -10.19204114 -6.58029841 0 0 Z " fill="#5C0E23" transform="translate(122,28)"/>
<path d="M0 0 C0.33 0 0.66 0 1 0 C1 37.29 1 74.58 1 113 C-6.70574569 105.29425431 -13.92374534 97.26130027 -20.7578125 88.7734375 C-22.31618131 86.84583844 -23.89600483 84.93546762 -25.4921875 83.0390625 C-26.70261719 81.59660156 -26.70261719 81.59660156 -27.9375 80.125 C-28.66839844 79.26132813 -29.39929687 78.39765625 -30.15234375 77.5078125 C-33.51432435 72.94461685 -34.29243695 69.25602905 -34.3125 63.625 C-34.32925781 62.54476562 -34.34601562 61.46453125 -34.36328125 60.3515625 C-33.67309004 53.98399198 -30.45781986 48.83384042 -27.1875 43.4375 C-26.80859619 42.81182129 -26.42969238 42.18614258 -26.03930664 41.54150391 C-21.83096593 34.63979207 -17.47056312 27.83291113 -13.11328125 21.0246582 C-9.10423872 14.75833612 -5.18154285 8.44982197 -1.35546875 2.0703125 C-0.68451172 1.04550781 -0.68451172 1.04550781 0 0 Z " fill="#06F8C4" transform="translate(71,47)"/>
<path d="M0 0 C4.99275105 1.064855 9.20909504 3.80285537 13.54296875 6.39453125 C14.44692383 6.92344971 15.35087891 7.45236816 16.28222656 7.99731445 C19.14773963 9.67945102 22.00228267 11.37908249 24.85546875 13.08203125 C26.78384497 14.22527593 28.71223027 15.36850529 30.640625 16.51171875 C34.13875183 18.59388591 37.63432614 20.68010802 41.12109375 22.78125 C41.82008789 23.20237061 42.51908203 23.62349121 43.23925781 24.05737305 C44.85546875 25.08203125 44.85546875 25.08203125 45.85546875 26.08203125 C46.44826616 32.36568383 46.44826616 32.36568383 44.18505859 35.10058594 C41.66645774 37.24279559 39.14402699 38.83887177 36.26953125 40.47265625 C35.17987061 41.0965625 34.09020996 41.72046875 32.9675293 42.36328125 C31.80542175 43.01996672 30.64306388 43.67620939 29.48046875 44.33203125 C28.29769616 45.00348933 27.11516083 45.67536551 25.93286133 46.34765625 C23.61761527 47.66403815 21.30114884 48.9781753 18.98388672 50.29101562 C16.36852383 51.78830782 13.77871484 53.31467368 11.203125 54.87890625 C10.24768799 55.4527002 10.24768799 55.4527002 9.27294922 56.03808594 C7.67432308 57.00276634 6.08291247 57.97937698 4.4921875 58.95703125 C1.32873116 60.30677262 0.04300912 60.3300079 -3.14453125 59.08203125 C-5.61017371 57.05393549 -6.97974616 55.85748351 -7.65246582 52.69177246 C-7.65564819 51.80671021 -7.65883057 50.92164795 -7.66210938 50.00976562 C-7.67471802 49.00192017 -7.68732666 47.99407471 -7.70031738 46.95568848 C-7.69222046 45.87331909 -7.68412354 44.79094971 -7.67578125 43.67578125 C-7.67960815 42.55892944 -7.68343506 41.44207764 -7.68737793 40.29138184 C-7.69009881 37.93106179 -7.68272545 35.57071168 -7.66601562 33.21044922 C-7.64461009 29.5953455 -7.66581303 25.98222932 -7.69140625 22.3671875 C-7.68876301 20.07421436 -7.68363811 17.78124245 -7.67578125 15.48828125 C-7.68387817 14.40591187 -7.6919751 13.32354248 -7.70031738 12.20837402 C-7.68770874 11.20052856 -7.6751001 10.19268311 -7.66210938 9.15429688 C-7.658927 8.26923462 -7.65574463 7.38417236 -7.65246582 6.47229004 C-6.71652723 2.06791284 -4.42554051 0.11544888 0 0 Z " fill="#FCB72B" transform="translate(87.14453125,63.91796875)"/>
<path d="M0 0 C0.1546875 0.9590625 0.1546875 0.9590625 0.3125 1.9375 C0.6528125 2.9584375 0.6528125 2.9584375 1 4 C1.99 4.33 2.98 4.66 4 5 C5.36639342 6.6396721 6.6949419 8.31110128 8 10 C8.825 10.825 9.65 11.65 10.5 12.5 C12.88146672 14.88146672 14.89871598 17.37339497 17 20 C19.39816596 22.4596574 21.85048741 24.85452829 24.3125 27.25 C27.41781629 30.42753295 30.32270526 33.75126956 33.23046875 37.109375 C34.86863988 39.07908003 34.86863988 39.07908003 37 40 C37.44214844 40.73734375 37.88429688 41.4746875 38.33984375 42.234375 C40.14659946 45.24421745 42.20354566 47.65398435 44.5625 50.25 C45.34753906 51.12140625 46.13257813 51.9928125 46.94140625 52.890625 C48.82091805 55.04702648 48.82091805 55.04702648 51 56 C51.72159424 57.64363134 52.39351421 59.31050386 53 61 C49.49839245 59.66862298 46.26194317 58.13031659 42.9921875 56.3046875 C42.01942871 55.76191162 41.04666992 55.21913574 40.04443359 54.65991211 C38.47556396 53.77638062 38.47556396 53.77638062 36.875 52.875 C35.77623535 52.25826416 34.6774707 51.64152832 33.54541016 51.00610352 C24.27359913 45.7747245 15.11456634 40.36245936 5.97265625 34.90722656 C-2.2694628 29.99768686 -10.58357995 25.23405703 -18.94995117 20.54003906 C-27.37050341 15.81118973 -35.69939962 10.93579325 -44 6 C-41.18291037 3.18291037 -38.04144455 3.06417481 -34.25 2.4375 C-33.10797119 2.24353638 -33.10797119 2.24353638 -31.94287109 2.0456543 C-21.33394324 0.31658712 -10.73902963 -0.19724748 0 0 Z " fill="#C38502" transform="translate(100,31)"/>
<path d="M0 0 C0.82886719 0.01804687 1.65773437 0.03609375 2.51171875 0.0546875 C3.10597656 0.07789062 3.70023438 0.10109375 4.3125 0.125 C4.3125 1.115 4.3125 2.105 4.3125 3.125 C-6.9075 5.105 -18.1275 7.085 -29.6875 9.125 C-26.98946491 12.24152578 -26.98946491 12.24152578 -23.81072998 13.18690491 C-19.92179589 14.71289895 -17.57763927 16.07901989 -14.6875 19.125 C-12.39534941 25.94874216 -13.29880383 33.72634499 -13.515625 40.80859375 C-13.53802025 42.95088442 -13.55509532 45.09323675 -13.56707764 47.23561096 C-13.61279217 52.86135 -13.73056267 58.48334186 -13.86352539 64.10760498 C-13.98651786 69.85181988 -14.04113756 75.59664343 -14.1015625 81.34179688 C-14.23007334 92.60450675 -14.43474031 103.86444124 -14.6875 115.125 C-13.39932373 115.11919922 -12.11114746 115.11339844 -10.78393555 115.10742188 C-9.06819698 115.10272926 -7.35245802 115.09817955 -5.63671875 115.09375 C-4.36773743 115.08746582 -4.36773743 115.08746582 -3.07312012 115.08105469 C1.81083563 115.07161937 6.62854985 115.22265801 11.5 115.625 C19.99563387 116.234318 28.48707834 116.23960384 37 116.25 C37.71739349 116.25249756 38.43478699 116.25499512 39.17391968 116.25756836 C41.24490112 116.26349315 43.31573542 116.26195194 45.38671875 116.2578125 C47.20562622 116.25612061 47.20562622 116.25612061 49.0612793 116.25439453 C51.9408258 116.13979217 54.51584194 115.79022609 57.3125 115.125 C54.77714447 118.9280333 53.74258011 119.11267499 49.3125 120.125 C45.34443515 120.39767468 41.39007881 120.38136481 37.4140625 120.35546875 C36.26513519 120.35501053 35.11620789 120.35455231 33.9324646 120.3540802 C31.50672369 120.35106477 29.08098459 120.34319976 26.65527344 120.33081055 C22.95761183 120.31259905 19.26020172 120.31030076 15.5625 120.31054688 C13.20051868 120.30562929 10.83853906 120.29979993 8.4765625 120.29296875 C7.37736481 120.29185593 6.27816711 120.2907431 5.1456604 120.28959656 C4.10453094 120.28321671 3.06340149 120.27683685 1.99072266 120.27026367 C1.08504547 120.26645187 0.17936829 120.26264008 -0.75375366 120.25871277 C-4.41407588 120.0918845 -8.05167275 119.57947841 -11.6875 119.125 C-11.6875 127.375 -11.6875 135.625 -11.6875 144.125 C-18.99727803 136.81522197 -25.73488902 129.15775149 -32.2265625 121.1171875 C-34.53637829 118.30874481 -36.90123967 115.56166821 -39.2902832 112.82104492 C-48.22149719 102.55792288 -55.47696297 94.13860422 -55.16796875 79.91015625 C-53.48201246 66.62811038 -42.64497879 53.94850813 -35.51708984 42.95849609 C-32.58074414 38.41096096 -29.69682977 33.83063505 -26.8125 29.25 C-25.81518316 27.66922099 -24.81779544 26.0884867 -23.8203125 24.5078125 C-23.11648437 23.39148438 -22.41265625 22.27515625 -21.6875 21.125 C-25.96703744 17.70357032 -30.73340206 15.09210629 -35.46289062 12.35351562 C-40.58028092 9.33943815 -40.58028092 9.33943815 -41.6875 7.125 C-37.75033264 6.33167324 -33.81270561 5.54065042 -29.875 4.75 C-28.22467773 4.41742188 -28.22467773 4.41742188 -26.54101562 4.078125 C-23.25794101 3.41957316 -19.97337915 2.76940693 -16.6875 2.125 C-15.67147705 1.92503418 -14.6554541 1.72506836 -13.60864258 1.51904297 C-9.03430859 0.64799889 -4.67724117 -0.13557221 0 0 Z M-16.6875 20.125 C-17.54415862 21.37171498 -18.35021649 22.6531916 -19.13671875 23.9453125 C-19.648396 24.78022217 -20.16007324 25.61513184 -20.68725586 26.4753418 C-21.24421143 27.390979 -21.80116699 28.30661621 -22.375 29.25 C-27.77285527 38.05511417 -33.2640117 46.79381979 -38.84057617 55.48681641 C-41.60652424 59.80970649 -44.34851619 64.1468426 -47.03515625 68.51953125 C-47.76424194 69.70252808 -47.76424194 69.70252808 -48.50805664 70.90942383 C-51.84625571 77.18020764 -51.78738532 85.58302752 -50.14453125 92.3671875 C-47.72956969 97.83203009 -43.37284417 101.9783513 -39.328125 106.27734375 C-36.07079556 109.79005552 -33.07810409 113.47635075 -30.06640625 117.19921875 C-27.30403063 120.59662325 -24.50518307 123.96092569 -21.6875 127.3125 C-21.20611572 127.88983887 -20.72473145 128.46717773 -20.22875977 129.06201172 C-19.07084844 130.43563493 -17.88212314 131.78318222 -16.6875 133.125 C-16.3575 133.125 -16.0275 133.125 -15.6875 133.125 C-15.6875 95.835 -15.6875 58.545 -15.6875 20.125 C-16.0175 20.125 -16.3475 20.125 -16.6875 20.125 Z " fill="#22322D" transform="translate(87.6875,26.875)"/>
<path d="M0 0 C0.495 1.98 0.495 1.98 1 4 C0.34 4 -0.32 4 -1 4 C-1.24363281 5.21300781 -1.48726562 6.42601562 -1.73828125 7.67578125 C-3.1412447 13.97743567 -5.17773156 20.05800094 -7.1875 26.1875 C-7.77990479 28.01861328 -7.77990479 28.01861328 -8.38427734 29.88671875 C-10.29523783 35.7926248 -12.22712425 41.69105395 -14.18359375 47.58203125 C-14.51270752 48.58532471 -14.84182129 49.58861816 -15.1809082 50.62231445 C-15.79694677 52.50006117 -16.42140892 54.3750713 -17.05541992 56.24682617 C-17.32845947 57.08318604 -17.60149902 57.9195459 -17.8828125 58.78125 C-18.12402832 59.50376953 -18.36524414 60.22628906 -18.61376953 60.97070312 C-19.23089485 64.21314665 -18.4262783 66.30483847 -16.73046875 69.0703125 C-16.22128906 69.74835938 -15.71210937 70.42640625 -15.1875 71.125 C-14.68605469 71.80820313 -14.18460938 72.49140625 -13.66796875 73.1953125 C-11.86042919 75.36420524 -11.86042919 75.36420524 -8 77 C-8.66 84.59 -9.32 92.18 -10 100 C-34.08018868 75.91981132 -34.08018868 75.91981132 -34.25 63.75 C-34.27578125 62.65171875 -34.3015625 61.5534375 -34.328125 60.421875 C-33.7130701 54.007731 -30.47498522 48.8621649 -27.1875 43.4375 C-26.80859619 42.81182129 -26.42969238 42.18614258 -26.03930664 41.54150391 C-21.83114204 34.64008088 -17.46884615 27.83499816 -13.11547852 21.0246582 C-8.66562306 14.06265985 -4.2901983 7.06150652 0 0 Z " fill="#049878" transform="translate(71,47)"/>
<path d="M0 0 C-0.59504579 2.80021547 -1.3847415 4.54255874 -3.70751953 6.26953125 C-5.96070048 7.58419112 -8.24321328 8.80583789 -10.5625 10 C-11.72362305 10.61875 -11.72362305 10.61875 -12.90820312 11.25 C-14.46994636 12.08223619 -16.03457353 12.90908329 -17.60205078 13.73046875 C-21.43497164 15.75970806 -25.21739858 17.87880964 -29 20 C-28.01 21.485 -28.01 21.485 -27 23 C-26.13291666 29.97044919 -27.1276286 35.65684649 -30 42 C-33.465 42.495 -33.465 42.495 -37 43 C-37.33 44.65 -37.66 46.3 -38 48 C-38.66 48 -39.32 48 -40 48 C-40 47.01 -40 46.02 -40 45 C-41.08539063 45.20496094 -42.17078125 45.40992188 -43.2890625 45.62109375 C-44.73436885 45.89326183 -46.1796817 46.16539542 -47.625 46.4375 C-48.33785156 46.57220703 -49.05070312 46.70691406 -49.78515625 46.84570312 C-53.84995013 47.61018271 -57.91714075 48.33669637 -62 49 C-62 49.66 -62 50.32 -62 51 C-63.010625 50.95875 -64.02125 50.9175 -65.0625 50.875 C-68.93835202 50.83059581 -68.93835202 50.83059581 -72.265625 51.97265625 C-76.16262538 53.04473899 -79.65688383 53.37095403 -83.6875 53.5625 C-89.41965929 53.80411156 -89.41965929 53.80411156 -95 55 C-92.50615208 52.20436225 -89.74784919 50.56746596 -86.49609375 48.734375 C-85.375979 48.09918945 -84.25586426 47.46400391 -83.10180664 46.80957031 C-81.88037515 46.12303966 -80.6589395 45.43651641 -79.4375 44.75 C-77.53132518 43.67132847 -75.6261593 42.59088866 -73.72099304 41.51043701 C-72.41558271 40.77032095 -71.10984371 40.03078432 -69.80378723 39.29180908 C-63.36795344 35.64920302 -56.96344887 31.9535784 -50.5625 28.25 C-41.80636643 23.18816995 -33.03168106 18.16061033 -24.23925781 13.16210938 C-18.24194118 9.74112139 -12.30715742 6.22642736 -6.4387207 2.58837891 C-2.21273405 0 -2.21273405 0 0 0 Z " fill="#A0173B" transform="translate(172,85)"/>
<path d="M0 0 C7.53338277 1.66913946 16.21587422 6.15337422 21.6875 11.625 C22.5125 11.934375 23.3375 12.24375 24.1875 12.5625 C26.6875 13.625 26.6875 13.625 28.6875 16.625 C28.625 19.1875 28.625 19.1875 27.6875 21.625 C26.04198038 22.34227778 24.37327711 23.00825228 22.6875 23.625 C22.3575 24.285 22.0275 24.945 21.6875 25.625 C20.27657897 28.44684205 18.61045711 28.52077176 15.6875 29.625 C14.54387662 30.41107049 13.41998655 31.22628544 12.3125 32.0625 C8.92753567 34.57535562 5.58913989 36.04933774 1.6875 37.625 C0.6975 38.285 -0.2925 38.945 -1.3125 39.625 C-3.9375 39.8125 -3.9375 39.8125 -6.3125 39.625 C-8.3593734 37.5781266 -7.50063103 33.3189528 -7.515625 30.50390625 C-7.52132507 29.68881088 -7.52702515 28.87371552 -7.53289795 28.03392029 C-7.54236127 26.30639958 -7.5488872 24.57886071 -7.55273438 22.85131836 C-7.56244687 20.20199274 -7.59345964 17.55344042 -7.625 14.90429688 C-7.63152903 13.22917129 -7.63677989 11.55404014 -7.640625 9.87890625 C-7.6529718 9.08303604 -7.6653186 8.28716583 -7.67803955 7.46717834 C-7.66894531 5.23266602 -7.66894531 5.23266602 -7.3125 1.625 C-4.01860755 -0.5709283 -3.66515251 -0.65295154 0 0 Z " fill="#FDD16D" transform="translate(91.3125,69.375)"/>
<path d="M0 0 C0 0.99 0 1.98 0 3 C-0.99 3 -1.98 3 -3 3 C-1.68322266 3.94166016 -1.68322266 3.94166016 -0.33984375 4.90234375 C3.83751807 8.40242771 5.96908902 12.77933673 8.4375 17.5625 C8.93757568 18.50544922 9.43765137 19.44839844 9.95288086 20.41992188 C11.04741262 22.48453474 12.13678341 24.55188975 13.22167969 26.62158203 C15.13010271 30.24716657 17.06489809 33.85767247 19.0078125 37.46484375 C19.68826798 38.72906615 20.36868802 39.99330762 21.04907227 41.25756836 C21.38319122 41.87840302 21.71731018 42.49923767 22.06155396 43.1388855 C23.66034356 46.11160369 25.25512197 49.08642377 26.84765625 52.0625 C27.38398682 53.06410156 27.92031738 54.06570312 28.47290039 55.09765625 C29.54159396 57.12877203 30.57167433 59.18045999 31.57202148 61.24609375 C32.85141099 64.05290196 32.85141099 64.05290196 35 66 C33.515 66.495 33.515 66.495 32 67 C29 62.375 29 62.375 29 59 C28.44828125 58.78214844 27.8965625 58.56429687 27.328125 58.33984375 C24.20669182 56.54344848 22.16759651 54.22397686 19.75 51.5625 C18.85796875 50.59441406 17.9659375 49.62632813 17.046875 48.62890625 C15 46 15 46 15 43 C14.40058594 42.73832031 13.80117187 42.47664063 13.18359375 42.20703125 C10.86938236 40.92779812 9.70340555 39.73749558 8.0625 37.6875 C4.83093278 33.76577395 1.31391772 30.24476415 -2.375 26.75 C-5.31156756 23.67359589 -7.81782423 20.39908277 -10.3515625 16.98828125 C-12.0253763 14.77616499 -12.0253763 14.77616499 -15 13 C-15 12.34 -15 11.68 -15 11 C-15.99 10.67 -16.98 10.34 -18 10 C-22 5.54285714 -22 5.54285714 -22 3 C-31.405 3.495 -31.405 3.495 -41 4 C-41 3.67 -41 3.34 -41 3 C-37.7 2.34 -34.4 1.68 -31 1 C-31.99 0.01 -32.98 -0.98 -34 -2 C-21.9911042 -4.69538343 -11.23910235 -5.68297726 0 0 Z " fill="#764F01" transform="translate(122,28)"/>
<path d="M0 0 C2.5625 -0.5 2.5625 -0.5 6 0 C12.84337886 5.5841474 16.41406392 14.01307389 20.25 21.75 C21.5534598 24.33464068 22.86496005 26.9151805 24.17578125 29.49609375 C24.49841446 30.13411423 24.82104767 30.7721347 25.15345764 31.42948914 C28.12524878 37.29192316 31.24808902 43.0656027 34.4375 48.8125 C34.90381836 49.65329102 35.37013672 50.49408203 35.85058594 51.36035156 C36.8972035 53.24201066 37.9480309 55.12132752 39 57 C43.73474097 55.3003494 47.96167111 52.86340973 52.3125 50.375 C53.05306641 49.95476562 53.79363281 49.53453125 54.55664062 49.1015625 C56.37269011 48.07051505 58.18656533 47.03563954 60 46 C61.17799 49.53397001 60.7751004 50.34513087 59.54052734 53.75927734 C59.19621674 54.72392914 58.85190613 55.68858093 58.49716187 56.6824646 C58.11395782 57.72311066 57.73075378 58.76375671 57.3359375 59.8359375 C56.75230942 61.44319199 56.75230942 61.44319199 56.15689087 63.08291626 C55.32922369 65.35258471 54.49667555 67.62047822 53.65966797 69.88671875 C52.38487536 73.34818525 51.13499408 76.81795948 49.88671875 80.2890625 C49.07963138 82.49273979 48.27108453 84.69588321 47.4609375 86.8984375 C47.08987885 87.9350351 46.71882019 88.97163269 46.33651733 90.03964233 C44.27641568 95.54663157 42.520665 99.21271843 38 103 C36.64444707 104.64864545 35.30368347 106.31003995 34 108 C33.01 107.505 33.01 107.505 32 107 C32.58007812 106.36449219 33.16015625 105.72898437 33.7578125 105.07421875 C36.57911287 101.20598985 38.16034078 97.25877993 39.875 92.8125 C40.39271973 91.497052 40.39271973 91.497052 40.92089844 90.1550293 C43.49608738 83.5258831 45.79190184 76.82410198 47.97851562 70.05834961 C49.66765284 64.86448792 51.62763082 59.92722831 54 55 C53.03578125 55.58910156 52.0715625 56.17820313 51.078125 56.78515625 C49.80247041 57.54492112 48.52640715 58.30400012 47.25 59.0625 C46.61578125 59.45244141 45.9815625 59.84238281 45.328125 60.24414062 C40.60989486 63.02101565 40.60989486 63.02101565 37.97363281 62.93017578 C35.04200409 61.54849525 34.39589778 59.64568529 32.96875 56.76953125 C32.1324707 55.1151001 32.1324707 55.1151001 31.27929688 53.42724609 C30.84411743 52.54295929 30.84411743 52.54295929 30.40014648 51.64080811 C29.18622612 49.1751867 27.94186272 46.72540318 26.69885254 44.27435303 C26.06378688 43.02141987 25.43025295 41.76770922 24.79821777 40.51324463 C21.80404074 34.57643443 18.68130156 28.71366597 15.5 22.875 C15.03271484 22.00721924 14.56542969 21.13943848 14.08398438 20.24536133 C8.17800794 9.27413331 8.17800794 9.27413331 0 0 Z " fill="#1A110C" transform="translate(118,30)"/>
<path d="M0 0 C0.33 0.66 0.66 1.32 1 2 C0.33521857 3.57448233 -0.33968541 5.14510432 -1.05078125 6.69921875 C-2.19062837 9.46205807 -3.02606493 12.25941101 -3.875 15.125 C-5.90326435 21.89374266 -8.38053206 28.44059462 -11 35 C-11.99 35 -12.98 35 -14 35 C-14.33 36.98 -14.66 38.96 -15 41 C-16.98 41.495 -16.98 41.495 -19 42 C-20.125 38.25 -20.125 38.25 -19 36 C-19.9075 36.350625 -20.815 36.70125 -21.75 37.0625 C-24.87758436 37.96468779 -26.05208081 38.13381507 -29 37 C-28.34 37 -27.68 37 -27 37 C-25.0940088 30.68640414 -24.27493524 24.60022183 -25 18 C-25.66 17.01 -26.32 16.02 -27 15 C-22.13198742 11.35376312 -17.28508994 8.44859262 -11.8125 5.8125 C-11.11447266 5.47025391 -10.41644531 5.12800781 -9.69726562 4.77539062 C-8.37182938 4.12591425 -7.04524619 3.47877095 -5.71728516 2.83447266 C-3.80388032 1.90470045 -1.89979386 0.95726047 0 0 Z " fill="#7C102D" transform="translate(169,90)"/>
<path d="M0 0 C0.33 0 0.66 0 1 0 C1.10104855 6.35966811 0.7512973 12.48763203 0.01171875 18.80078125 C-0.09214645 19.71723923 -0.19601166 20.6336972 -0.30302429 21.57792664 C-0.5233949 23.51194668 -0.74623873 25.44568637 -0.97143555 27.37915039 C-1.30706348 30.26574279 -1.63367476 33.15324435 -1.95898438 36.04101562 C-3.36949782 48.40571054 -5.0694511 60.70606998 -7 73 C-10.92715012 72.30795444 -12.40301391 70.71427672 -14.8203125 67.53125 C-16.03459936 65.86979875 -16.03459936 65.86979875 -17.9375 64.1875 C-20.77587558 58.34378556 -15.29421794 47.09029683 -13.4375 41.125 C-13.09396484 40.01398926 -12.75042969 38.90297852 -12.39648438 37.75830078 C-8.45639632 25.10863746 -4.24738696 12.54936748 0 0 Z " fill="#03C499" transform="translate(70,51)"/>
<path d="M0 0 C-0.59504579 2.80021547 -1.3847415 4.54255874 -3.70751953 6.26953125 C-5.96070048 7.58419112 -8.24321328 8.80583789 -10.5625 10 C-11.72362305 10.61875 -11.72362305 10.61875 -12.90820312 11.25 C-14.46994636 12.08223619 -16.03457353 12.90908329 -17.60205078 13.73046875 C-21.43497164 15.75970806 -25.21739858 17.87880964 -29 20 C-28.34 20.99 -27.68 21.98 -27 23 C-26.9140625 24.984375 -26.9140625 24.984375 -28 27 C-30.48647917 28.29368129 -32.76311227 29.29845726 -35.375 30.25 C-36.06078125 30.518125 -36.7465625 30.78625 -37.453125 31.0625 C-40.43036641 32.1977905 -42.78971192 33 -46 33 C-46 33.66 -46 34.32 -46 35 C-47.16402344 35.43699219 -47.16402344 35.43699219 -48.3515625 35.8828125 C-55.57114552 38.62246334 -62.65248076 41.53546863 -69.7109375 44.66796875 C-73.12004933 46.04861855 -76.45066109 47.05201201 -80 48 C-80 48.66 -80 49.32 -80 50 C-83 51 -83 51 -85.1875 50.0625 C-86.0846875 49.5365625 -86.0846875 49.5365625 -87 49 C-85.99755249 48.4423999 -85.99755249 48.4423999 -84.97485352 47.87353516 C-68.20215644 38.54113087 -68.20215644 38.54113087 -51.60571289 28.90087891 C-43.98748433 24.38265739 -36.30545227 19.97575192 -28.62719727 15.56054688 C-23.6102984 12.67242125 -18.60043423 9.77551001 -13.625 6.81640625 C-12.83351563 6.34589844 -12.04203125 5.87539062 -11.2265625 5.390625 C-9.78150715 4.52866216 -8.33865599 3.66298921 -6.8984375 2.79296875 C-2.21780711 0 -2.21780711 0 0 0 Z " fill="#C9204D" transform="translate(172,85)"/>
<path d="M0 0 C0.33 0 0.66 0 1 0 C1 4.33333333 1 8.66666667 1 13 C1.99 13.33 2.98 13.66 4 14 C-0.09707456 16.42054768 -4.1972007 18.83544399 -8.3046875 21.23828125 C-11.24358947 22.95915692 -14.16477761 24.7039047 -17.0703125 26.48046875 C-18.29678811 27.21629068 -19.52334593 27.95197562 -20.75 28.6875 C-22.38195312 29.68330078 -22.38195312 29.68330078 -24.046875 30.69921875 C-27.3425634 32.15089102 -28.66297072 32.24263503 -32 31 C-34 29 -34 29 -34.125 25.875 C-34.08375 24.92625 -34.0425 23.9775 -34 23 C-31.69 23.33 -29.38 23.66 -27 24 C-27.825 23.38125 -28.65 22.7625 -29.5 22.125 C-30.325 21.42375 -31.15 20.7225 -32 20 C-32 19.34 -32 18.68 -32 18 C-31.37351562 17.87882812 -30.74703125 17.75765625 -30.1015625 17.6328125 C-29.28429687 17.46523437 -28.46703125 17.29765625 -27.625 17.125 C-26.40683594 16.88136719 -26.40683594 16.88136719 -25.1640625 16.6328125 C-22.81326077 16.13341068 -22.81326077 16.13341068 -21 14 C-20.01 14 -19.02 14 -18 14 C-18 13.34 -18 12.68 -18 12 C-15.98828125 10.34375 -15.98828125 10.34375 -13.3125 8.5 C-12.44238281 7.8915625 -11.57226562 7.283125 -10.67578125 6.65625 C-8.16317443 5.1010014 -5.7449124 4.06406553 -3 3 C-1.29078411 1.4587688 -1.29078411 1.4587688 0 0 Z " fill="#FBAD05" transform="translate(116,92)"/>
<path d="M0 0 C8.0995653 0.82648625 17.09471003 3.87958812 22.84375 9.9453125 C25.97908127 14.3870318 28.34808737 19.16171528 30.8125 24 C31.87838545 26.06667494 32.94478902 28.13308273 34.01171875 30.19921875 C34.52395996 31.1948584 35.03620117 32.19049805 35.56396484 33.21630859 C37.39309615 36.76199971 39.24810468 40.29183952 41.125 43.8125 C41.64320313 44.78832031 42.16140625 45.76414063 42.6953125 46.76953125 C43.93348368 49.10237407 43.93348368 49.10237407 46 51 C45.01 51.33 44.02 51.66 43 52 C40 47.375 40 47.375 40 44 C39.17242187 43.67322266 39.17242187 43.67322266 38.328125 43.33984375 C35.20669182 41.54344848 33.16759651 39.22397686 30.75 36.5625 C29.85796875 35.59441406 28.9659375 34.62632813 28.046875 33.62890625 C26 31 26 31 26 28 C25.40058594 27.73832031 24.80117187 27.47664063 24.18359375 27.20703125 C21.86938236 25.92779812 20.70340555 24.73749558 19.0625 22.6875 C16.52624429 19.60958164 13.85953481 16.78621341 11 14 C7.12820017 10.22747709 3.20415824 6.37130867 0 2 C0 1.34 0 0.68 0 0 Z " fill="#966702" transform="translate(111,43)"/>
<path d="M0 0 C0 0.99 0 1.98 0 3 C0.66 3 1.32 3 2 3 C2 3.99 2 4.98 2 6 C-10.77494292 15.41311584 -24.84381394 13.70926367 -40 13 C-41.0327002 12.95746094 -42.06540039 12.91492188 -43.12939453 12.87109375 C-48.42534604 12.65039202 -53.71205158 12.3646861 -59 12 C-55.60650251 9.17208543 -53.18756745 8.60482749 -48.765625 8.24609375 C-45.44736596 7.95082494 -42.17142949 7.48043706 -38.875 7 C-37.73804687 6.835 -36.60109375 6.67 -35.4296875 6.5 C-33.03514194 6.15090908 -30.64461095 5.77363022 -28.2578125 5.375 C-25 5 -25 5 -22 6 C-22 5.34 -22 4.68 -22 4 C-14.67095374 1.85787067 -7.68540156 0 0 0 Z " fill="#7B122E" transform="translate(132,130)"/>
<path d="M0 0 C0.99 0 1.98 0 3 0 C3.0825 0.61875 3.165 1.2375 3.25 1.875 C3.78080685 4.14173389 3.78080685 4.14173389 5.78735352 4.95166016 C6.88261353 5.47058838 6.88261353 5.47058838 8 6 C9.40269824 6.93896144 10.78596771 7.9073636 12.15234375 8.8984375 C12.92900391 9.46046875 13.70566406 10.0225 14.50585938 10.6015625 C15.70952148 11.47941406 15.70952148 11.47941406 16.9375 12.375 C17.73607422 12.9525 18.53464844 13.53 19.35742188 14.125 C23.31544094 16.9975971 27.19325518 19.92864907 31 23 C33.50813031 24.91282665 36.03530562 26.79996391 38.5625 28.6875 C39.98047481 29.74868982 41.39844349 30.80988783 42.81640625 31.87109375 C43.51781738 32.39558105 44.21922852 32.92006836 44.94189453 33.46044922 C47.9634583 35.72070795 50.98177256 37.98528929 54 40.25 C54.969375 40.97703125 55.93875 41.7040625 56.9375 42.453125 C57.9584375 43.21882813 57.9584375 43.21882813 59 44 C58.01 44.495 58.01 44.495 57 45 C54.58349609 43.86694336 54.58349609 43.86694336 51.5234375 42.08984375 C50.38849854 41.43588623 49.25355957 40.78192871 48.08422852 40.1081543 C46.84770442 39.38479871 45.61129752 38.66124276 44.375 37.9375 C43.11489216 37.2074153 41.85439024 36.47801035 40.59350586 35.74926758 C37.35648869 33.87569251 34.12520873 31.99245837 30.89556885 30.10620117 C27.92650912 28.37354063 24.95322619 26.64818349 21.98046875 24.921875 C16.31329273 21.62662318 10.64693836 18.32985063 5 15 C4.09757568 14.50927002 3.19515137 14.01854004 2.26538086 13.51293945 C0 12 0 12 -1 9 C-0.0625 5.8125 -0.0625 5.8125 1 3 C0.34 3 -0.32 3 -1 3 C-0.67 2.01 -0.34 1.02 0 0 Z " fill="#FAAC06" transform="translate(89,44)"/>
<path d="M0 0 C0.93423645 3.01031744 1.04449911 3.86650268 0 7 C-0.41521336 13.1509514 -0.07007239 18.17792142 2 24 C2.79239249 31.52772862 0.41774441 37.91946281 -2 45 C-6.67246779 41.45884282 -9.34138936 38.65354381 -11 33 C-12.19038146 22.28656682 -9.46128709 14.95959504 -3.8125 6.0625 C-3.44447266 5.47404297 -3.07644531 4.88558594 -2.69726562 4.27929688 C-1.80256882 2.85010587 -0.90191805 1.42464491 0 0 Z " fill="#037259" transform="translate(48,84)"/>
<path d="M0 0 C0.75023438 0.6290625 1.50046875 1.258125 2.2734375 1.90625 C4.85039049 4.05224498 6.44141686 5.33724312 9.6484375 6.40625 C10.1434375 7.89125 10.1434375 7.89125 10.6484375 9.40625 C10.3184375 10.06625 9.9884375 10.72625 9.6484375 11.40625 C10.3084375 11.40625 10.9684375 11.40625 11.6484375 11.40625 C11.3184375 14.04625 10.9884375 16.68625 10.6484375 19.40625 C4.43405958 17.06821648 -1.19783032 13.7086401 -6.9765625 10.46875 C-8.12125 9.83517578 -9.2659375 9.20160156 -10.4453125 8.54882812 C-11.54101562 7.93587891 -12.63671875 7.32292969 -13.765625 6.69140625 C-14.7654541 6.13332275 -15.7652832 5.57523926 -16.79541016 5.00024414 C-19.00608003 3.62168983 -20.63192279 2.34075347 -22.3515625 0.40625 C-5.19481551 -3.52073875 -5.19481551 -3.52073875 0 0 Z " fill="#BF8507" transform="translate(78.3515625,35.59375)"/>
<path d="M0 0 C0 11.88 0 23.76 0 36 C-1.65 34.35 -3.3 32.7 -5 31 C-5.59425781 30.47277344 -6.18851562 29.94554687 -6.80078125 29.40234375 C-10.4134967 25.90165049 -11.41512324 23.29690263 -11.5 18.25 C-11.20473325 12.40371833 -10.2590765 6.71081126 -9 1 C-2.25 0 -2.25 0 0 0 Z " fill="#07C299" transform="translate(72,124)"/>
<path d="M0 0 C18.85106383 8.85106383 18.85106383 8.85106383 24 14 C24.58333333 20.18333333 24.58333333 20.18333333 22.4375 23.1875 C16.78024995 27.39417311 13.01663001 29.17007602 6 30 C6.28138058 27.70704764 6.5754186 25.41564544 6.875 23.125 C7.03742188 21.84882812 7.19984375 20.57265625 7.3671875 19.2578125 C8 16 8 16 10 14 C10.15196754 10.99096209 10.15196754 10.99096209 9 8 C6.15007835 6.24169437 6.15007835 6.24169437 3 5 C1.125 3.4375 1.125 3.4375 0 2 C0 1.34 0 0.68 0 0 Z " fill="#C38608" transform="translate(109,76)"/>
<path d="M0 0 C0.103125 0.639375 0.20625 1.27875 0.3125 1.9375 C0.6528125 2.9584375 0.6528125 2.9584375 1 4 C1.99 4.33 2.98 4.66 4 5 C8 9.57142857 8 9.57142857 8 11 C6.87851563 11.19916016 6.87851563 11.19916016 5.734375 11.40234375 C4.25710937 11.66724609 4.25710937 11.66724609 2.75 11.9375 C1.77546875 12.11152344 0.8009375 12.28554688 -0.203125 12.46484375 C-2.91301388 12.94667342 -2.91301388 12.94667342 -5.1875 13.59375 C-7.64845084 14.14534243 -9.58236305 13.60440924 -12 13 C-12 12.34 -12 11.68 -12 11 C-12.56203125 10.90589844 -13.1240625 10.81179687 -13.703125 10.71484375 C-16.56531831 9.8240591 -18.39770461 8.41128118 -20.75 6.5625 C-21.54921875 5.94503906 -22.3484375 5.32757813 -23.171875 4.69140625 C-23.77515625 4.13324219 -24.3784375 3.57507812 -25 3 C-25 2.34 -25 1.68 -25 1 C-16.64895793 0.31728707 -8.38011029 -0.15392039 0 0 Z " fill="#976803" transform="translate(100,31)"/>
<path d="M0 0 C18.21428571 -0.13392857 18.21428571 -0.13392857 26.1875 0.5 C34.68313387 1.109318 43.17457834 1.11460384 51.6875 1.125 C52.40489349 1.12749756 53.12228699 1.12999512 53.86141968 1.13256836 C55.93240112 1.13849315 58.00323542 1.13695194 60.07421875 1.1328125 C61.89312622 1.13112061 61.89312622 1.13112061 63.7487793 1.12939453 C66.6283258 1.01479217 69.20334194 0.66522609 72 0 C69.46520176 3.80219736 68.42856737 3.98740581 64 5 C60.04363929 5.27260999 56.10105163 5.25636234 52.13671875 5.23046875 C50.4168853 5.22978142 50.4168853 5.22978142 48.66230774 5.2290802 C46.24076297 5.22606455 43.81922003 5.21819887 41.39770508 5.20581055 C37.71102946 5.18761612 34.02460637 5.18530065 30.33789062 5.18554688 C27.97916452 5.18062858 25.6204401 5.17479891 23.26171875 5.16796875 C22.16768234 5.16685593 21.07364594 5.1657431 19.94645691 5.16459656 C13.88510352 5.12745099 8.01111842 4.7880921 2 4 C2.02320312 4.91523438 2.04640625 5.83046875 2.0703125 6.7734375 C2.08835937 7.96195313 2.10640625 9.15046875 2.125 10.375 C2.14820312 11.55835938 2.17140625 12.74171875 2.1953125 13.9609375 C2 17 2 17 0 19 C0 12.73 0 6.46 0 0 Z " fill="#1B1112" transform="translate(73,142)"/>
<path d="M0 0 C1.34934161 2.69868322 0.84472183 3.81456587 0 6.6875 C-2.47011878 12.74016694 -6.65307375 14.40402989 -12.33984375 16.8425293 C-16.17104562 18.39290834 -20.06706055 19.73366656 -24 21 C-24.99 19.02 -25.98 17.04 -27 15 C-22.13198742 11.35376312 -17.28508994 8.44859262 -11.8125 5.8125 C-11.11447266 5.47025391 -10.41644531 5.12800781 -9.69726562 4.77539062 C-8.37182938 4.12591425 -7.04524619 3.47877095 -5.71728516 2.83447266 C-3.80388032 1.90470045 -1.89979386 0.95726047 0 0 Z " fill="#9F183C" transform="translate(169,90)"/>
<path d="M0 0 C-0.59853087 2.77500674 -1.37465555 4.5321308 -3.67529297 6.25341797 C-5.89725239 7.55327209 -8.14897776 8.75879001 -10.4375 9.9375 C-11.57348633 10.54368164 -11.57348633 10.54368164 -12.73242188 11.16210938 C-14.31370544 12.00519507 -15.8983204 12.84205577 -17.48583984 13.67333984 C-20.11139505 15.05878041 -22.71454576 16.48075356 -25.31640625 17.91015625 C-32.37787757 21.77248748 -39.53298919 25.45078337 -46.68359375 29.14453125 C-47.72644531 29.68464844 -48.76929688 30.22476563 -49.84375 30.78125 C-50.86339844 31.30847656 -51.88304688 31.83570312 -52.93359375 32.37890625 C-56.9515519 34.50304973 -60.89995082 36.74498259 -64.83789062 39.01367188 C-65.55138672 39.33916016 -66.26488281 39.66464844 -67 40 C-67.66 39.67 -68.32 39.34 -69 39 C-55.45093384 31.07636423 -41.88387962 23.18628925 -28.27783203 15.36083984 C-23.38651407 12.54444618 -18.50353717 9.71709416 -13.65234375 6.83203125 C-12.45919556 6.12288574 -12.45919556 6.12288574 -11.24194336 5.39941406 C-9.79114478 4.53427489 -8.34257863 3.66537628 -6.89672852 2.79199219 C-2.21791331 0 -2.21791331 0 0 0 Z " fill="#A66071" transform="translate(172,85)"/>
<path d="M0 0 C-4.09707456 2.42054768 -8.1972007 4.83544399 -12.3046875 7.23828125 C-15.24358947 8.95915692 -18.16477761 10.7039047 -21.0703125 12.48046875 C-22.29678811 13.21629068 -23.52334593 13.95197562 -24.75 14.6875 C-26.38195312 15.68330078 -26.38195312 15.68330078 -28.046875 16.69921875 C-31.3425634 18.15089102 -32.66297072 18.24263503 -36 17 C-38 15 -38 15 -38.125 11.875 C-38.08375 10.92625 -38.0425 9.9775 -38 9 C-37.07767578 9.10828125 -37.07767578 9.10828125 -36.13671875 9.21875 C-35.32847656 9.3115625 -34.52023438 9.404375 -33.6875 9.5 C-32.88699219 9.5928125 -32.08648437 9.685625 -31.26171875 9.78125 C-28.88103445 10.04813463 -28.88103445 10.04813463 -26 10 C-26 9.34 -26 8.68 -26 8 C-25.46632813 7.82984375 -24.93265625 7.6596875 -24.3828125 7.484375 C-14.37375237 4.28143195 -14.37375237 4.28143195 -4.89453125 -0.18359375 C-3 -1 -3 -1 0 0 Z " fill="#EBC478" transform="translate(120,106)"/>
<path d="M0 0 C3.50537948 1.31373902 6.62164636 2.85881093 9.8125 4.8125 C11.111875 5.60140625 11.111875 5.60140625 12.4375 6.40625 C14.05212137 7.41046573 15.65777878 8.42938337 17.25 9.46875 C22.2264569 12.75830773 22.2264569 12.75830773 28 14 C28.99 13.67 29.98 13.34 31 13 C32.61889648 13.84521484 32.61889648 13.84521484 34.37109375 15.2109375 C35.02271484 15.71012695 35.67433594 16.20931641 36.34570312 16.72363281 C37.03599609 17.26858398 37.72628906 17.81353516 38.4375 18.375 C39.87361958 19.48187248 41.30981835 20.58864223 42.74609375 21.6953125 C43.46007324 22.2512207 44.17405273 22.80712891 44.90966797 23.37988281 C47.91225327 25.70704423 50.95446936 27.97953375 54 30.25 C55.66666667 31.5 57.33333333 32.75 59 34 C58.01 34.495 58.01 34.495 57 35 C54.58349609 33.86694336 54.58349609 33.86694336 51.5234375 32.08984375 C50.38849854 31.43588623 49.25355957 30.78192871 48.08422852 30.1081543 C46.84770442 29.38479871 45.61129752 28.66124276 44.375 27.9375 C43.11489216 27.2074153 41.85439024 26.47801035 40.59350586 25.74926758 C37.35648869 23.87569251 34.12520873 21.99245837 30.89556885 20.10620117 C27.92650912 18.37354063 24.95322619 16.64818349 21.98046875 14.921875 C16.31329273 11.62662318 10.64693836 8.32985063 5 5 C3.61542603 4.23296753 3.61542603 4.23296753 2.20288086 3.45043945 C1.47593018 2.97179443 0.74897949 2.49314941 0 2 C0 1.34 0 0.68 0 0 Z " fill="#F0B635" transform="translate(89,54)"/>
<path d="M0 0 C0.66 0.33 1.32 0.66 2 1 C1.54465422 9.16119742 -0.89361858 16.13023105 -3.75 23.75 C-4.18054688 24.95527344 -4.61109375 26.16054687 -5.0546875 27.40234375 C-5.48523438 28.56378906 -5.91578125 29.72523437 -6.359375 30.921875 C-6.74577148 31.96956055 -7.13216797 33.01724609 -7.53027344 34.09667969 C-9.21940676 37.43341947 -11.2685628 39.47081179 -14 42 C-15.35555293 43.64864545 -16.69631653 45.31003995 -18 47 C-18.66 46.67 -19.32 46.34 -20 46 C-19.41992188 45.36449219 -18.83984375 44.72898438 -18.2421875 44.07421875 C-15.42086652 40.20596158 -13.83978733 36.25876552 -12.125 31.8125 C-11.60945557 30.50357788 -11.60945557 30.50357788 -11.08349609 29.16821289 C-8.45486739 22.40513546 -6.08684223 15.56864386 -3.90283203 8.6496582 C-2.87033689 5.40941264 -1.90065818 2.85098727 0 0 Z " fill="#2D1F21" transform="translate(170,91)"/>
<path d="M0 0 C0.33 0 0.66 0 1 0 C1 24.09 1 48.18 1 73 C0.34 73 -0.32 73 -1 73 C-1.19590589 65.33635927 -1.37272587 57.67243768 -1.53710938 50.00805664 C-1.59502732 47.40802344 -1.65710148 44.80807901 -1.72363281 42.20825195 C-2.08493644 27.97781597 -2.35212308 14.07578746 0 0 Z " fill="#3EF5CB" transform="translate(71,51)"/>
<path d="M0 0 C3.22428146 1.61214073 4.12192072 4.98880221 5.625 8.125 C6.33693799 9.57891137 7.05052399 11.03201674 7.765625 12.484375 C8.13236328 13.23009766 8.49910156 13.97582031 8.87695312 14.74414062 C10.65548031 18.31666045 12.50450653 21.84993929 14.375 25.375 C14.70838379 26.01066895 15.04176758 26.64633789 15.38525391 27.30126953 C16.74663011 29.85690898 17.93991398 31.93991398 20 34 C18.515 34.495 18.515 34.495 17 35 C14 30.375 14 30.375 14 27 C13.44699219 26.77957031 12.89398438 26.55914062 12.32421875 26.33203125 C9.23837015 24.56350289 7.21204814 22.30679997 4.8125 19.6875 C3.93207031 18.74261719 3.05164063 17.79773438 2.14453125 16.82421875 C0.02451075 14.03227918 -0.68055089 12.43877574 -1 9 C-0.34 8.67 0.32 8.34 1 8 C1.33 7.01 1.66 6.02 2 5 C1.34 5 0.68 5 0 5 C0 3.35 0 1.7 0 0 Z " fill="#916607" transform="translate(137,60)"/>
<path d="M0 0 C0.66 0.33 1.32 0.66 2 1 C1.01 1.66 0.02 2.32 -1 3 C-1.13519043 3.65403809 -1.27038086 4.30807617 -1.40966797 4.98193359 C-2 7 -2 7 -3.93017578 8.24853516 C-5.17516846 8.76359619 -5.17516846 8.76359619 -6.4453125 9.2890625 C-7.35796875 9.67320313 -8.270625 10.05734375 -9.2109375 10.453125 C-10.17257813 10.83984375 -11.13421875 11.2265625 -12.125 11.625 C-13.0634375 12.01945312 -14.001875 12.41390625 -14.96875 12.8203125 C-19.9197112 14.87281182 -24.80964117 16.66287155 -30 18 C-30 18.66 -30 19.32 -30 20 C-33 21 -33 21 -35.1875 20.0625 C-36.0846875 19.5365625 -36.0846875 19.5365625 -37 19 C-21.15185547 9.79785156 -21.15185547 9.79785156 -13.38671875 6.9765625 C-9.47738768 5.37699987 -5.88818075 3.20854922 -2.25 1.07421875 C-1.5075 0.71972656 -0.765 0.36523438 0 0 Z " fill="#C8224F" transform="translate(122,115)"/>
<path d="M0 0 C1.4216868 4.26506039 -0.34613318 7.20037743 -1.9375 11.1875 C-2.22818359 11.93708984 -2.51886719 12.68667969 -2.81835938 13.45898438 C-3.53725036 15.30924477 -4.26754653 17.15506648 -5 19 C-6.55078125 17.203125 -6.55078125 17.203125 -8 15 C-7.1875 11.75 -7.1875 11.75 -6 9 C-6.969375 9.66 -7.93875 10.32 -8.9375 11 C-13.25589579 13.51316476 -17.12632275 13.3978512 -22 13 C-20.58478262 10.16956524 -18.95266421 10.16234338 -16 9 C-13.19043314 7.5265766 -10.44116902 5.94993134 -7.6875 4.375 C-6.94693359 3.95476562 -6.20636719 3.53453125 -5.44335938 3.1015625 C-3.62730989 2.07051505 -1.81343467 1.03563954 0 0 Z " fill="#353333" transform="translate(178,76)"/>
<path d="M0 0 C-1.2065625 0.9590625 -1.2065625 0.9590625 -2.4375 1.9375 C-4.2750504 3.40603502 -4.2750504 3.40603502 -6 5 C-6.12281952 6.62579218 -6.17782504 8.25677004 -6.20532227 9.88696289 C-6.22526749 10.92796646 -6.24521271 11.96897003 -6.26576233 13.04151917 C-6.28247482 14.1737944 -6.29918732 15.30606964 -6.31640625 16.47265625 C-6.33718735 17.62543564 -6.35796844 18.77821503 -6.37937927 19.96592712 C-6.44499964 23.66472157 -6.50381755 27.36358959 -6.5625 31.0625 C-6.60567335 33.56315879 -6.64928724 36.06381001 -6.69335938 38.56445312 C-6.80069368 44.70955662 -6.90243643 50.85473404 -7 57 C-9.51575387 54.48424613 -9.26069279 53.6358121 -9.29052734 50.15478516 C-9.30328705 49.14678864 -9.31604675 48.13879211 -9.32919312 47.10025024 C-9.33141876 46.00755829 -9.33364441 44.91486633 -9.3359375 43.7890625 C-9.3459227 42.10953995 -9.3459227 42.10953995 -9.35610962 40.39608765 C-9.36624981 38.02384081 -9.37092622 35.65156536 -9.37060547 33.27929688 C-9.37497396 29.64665726 -9.41126805 26.01523659 -9.44921875 22.3828125 C-9.45508747 20.08073333 -9.45905649 17.77864838 -9.4609375 15.4765625 C-9.47530853 14.38791901 -9.48967957 13.29927551 -9.50448608 12.17764282 C-9.49833282 11.16334198 -9.49217957 10.14904114 -9.48583984 9.10400391 C-9.48868988 8.21290924 -9.49153992 7.32181458 -9.49447632 6.40371704 C-8.41155926 1.13950907 -5.06263918 -0.56251546 0 0 Z " fill="#A1262F" transform="translate(89,64)"/>
<path d="M0 0 C0.66 0 1.32 0 2 0 C0.52418879 6.55916094 -3.48758485 11.71725719 -9.09765625 15.36328125 C-14.49428503 18.13724931 -18.9865576 19.12751687 -25.078125 19.09765625 C-26.23828125 19.09443359 -27.3984375 19.09121094 -28.59375 19.08789062 C-29.8003125 19.07951172 -31.006875 19.07113281 -32.25 19.0625 C-33.47203125 19.05798828 -34.6940625 19.05347656 -35.953125 19.04882812 C-38.96879946 19.03704815 -41.98437498 19.02059853 -45 19 C-45 18.67 -45 18.34 -45 18 C-44.30962646 17.98541748 -43.61925293 17.97083496 -42.90795898 17.95581055 C-39.7506034 17.88089383 -36.59425499 17.78437783 -33.4375 17.6875 C-32.35146484 17.66494141 -31.26542969 17.64238281 -30.14648438 17.61914062 C-21.62933827 17.33437282 -16.01353567 16.40150572 -10 10 C-9.01 9.38125 -8.02 8.7625 -7 8.125 C-3.69572287 5.78447037 -2.15254236 3.38256657 0 0 Z " fill="#514E4E" transform="translate(158,129)"/>
<path d="M0 0 C0.33 1.32 0.66 2.64 1 4 C0.34 4 -0.32 4 -1 4 C-1.10957031 4.63808594 -1.21914062 5.27617188 -1.33203125 5.93359375 C-1.56986328 7.17302734 -1.56986328 7.17302734 -1.8125 8.4375 C-1.96332031 9.26121094 -2.11414063 10.08492187 -2.26953125 10.93359375 C-2.51058594 11.61550781 -2.75164062 12.29742187 -3 13 C-3.99 13.33 -4.98 13.66 -6 14 C-6 14.99 -6 15.98 -6 17 C-6.66 17 -7.32 17 -8 17 C-8 18.98 -8 20.96 -8 23 C-8.66 23 -9.32 23 -10 23 C-10.28875 23.639375 -10.5775 24.27875 -10.875 24.9375 C-12 27 -12 27 -14 28 C-15.0409066 29.64142963 -16.04504326 31.30712215 -17 33 C-17.99 32.67 -18.98 32.34 -20 32 C-19.51756836 31.23876831 -19.51756836 31.23876831 -19.02539062 30.4621582 C-12.61821253 20.34754557 -6.23831355 10.21982543 0 0 Z " fill="#099071" transform="translate(71,47)"/>
<path d="M0 0 C3.23270311 0.8816463 4.4939631 1.3080089 6.4375 3.9375 C5.4475 4.4325 5.4475 4.4325 4.4375 4.9375 C3.7775 4.6075 3.1175 4.2775 2.4375 3.9375 C-1.10421978 3.77080682 -1.10421978 3.77080682 -4.5625 3.9375 C-7.49254571 6.86754571 -5.88602238 17.66801642 -5.91259766 21.828125 C-5.92913794 23.72733836 -5.95640259 25.62648996 -5.99462891 27.52539062 C-6.0494574 30.26204765 -6.07128247 32.99724232 -6.0859375 35.734375 C-6.10860687 36.58038269 -6.13127625 37.42639038 -6.15463257 38.29803467 C-6.13894344 42.68666539 -6.02386488 44.37218534 -3.15478516 47.88769531 C-2.29933105 48.56413086 -1.44387695 49.24056641 -0.5625 49.9375 C0.0975 50.5975 0.7575 51.2575 1.4375 51.9375 C-5.3125 51.0625 -5.3125 51.0625 -7.5625 49.9375 C-7.66390493 43.4597714 -7.73396717 36.98224739 -7.78222656 30.50390625 C-7.80234419 28.3000524 -7.82964172 26.09625193 -7.86425781 23.89257812 C-7.91276833 20.72512644 -7.93546736 17.55838032 -7.953125 14.390625 C-7.97377014 13.40507629 -7.99441528 12.41952759 -8.01568604 11.40411377 C-8.01791589 4.60914588 -8.01791589 4.60914588 -5.76074219 1.28027344 C-3.5625 -0.0625 -3.5625 -0.0625 0 0 Z " fill="#FD9831" transform="translate(89.5625,65.0625)"/>
<path d="M0 0 C1.17559991 1.14201134 2.34184327 2.29670689 3.4375 3.515625 C6.04838965 5.99597017 9.18724391 7.58506179 12.2890625 9.3828125 C24.26283368 16.52566735 24.26283368 16.52566735 26 20 C19.78562208 17.66196648 14.15373218 14.3023901 8.375 11.0625 C7.2303125 10.42892578 6.085625 9.79535156 4.90625 9.14257812 C3.81054688 8.52962891 2.71484375 7.91667969 1.5859375 7.28515625 C0.5861084 6.72707275 -0.4137207 6.16898926 -1.44384766 5.59399414 C-3.65451753 4.21543983 -5.28036029 2.93450347 -7 1 C-4.35955695 -0.32022153 -2.93650531 -0.40974493 0 0 Z " fill="#B7974F" transform="translate(63,35)"/>
<path d="M0 0 C5.60461531 0.42089996 10.72086547 0.91613111 16 3 C10.06382979 7.94680851 10.06382979 7.94680851 7 9 C3.65022937 8.68097423 2.40820361 8.40820361 0 6 C-0.125 2.875 -0.125 2.875 0 0 Z " fill="#D3A55D" transform="translate(82,115)"/>
<path d="M0 0 C0.66 0 1.32 0 2 0 C2.433125 0.7425 2.86625 1.485 3.3125 2.25 C5.16677714 5.27178496 7.15621943 6.92480878 10 9 C9 12 9 12 6 14 C4.02 14 2.04 14 0 14 C0 9.38 0 4.76 0 0 Z " fill="#FEDB92" transform="translate(85,93)"/>
<path d="M0 0 C2.5073077 1.43632197 3.35570485 2.56400718 5 5 C4.01 5.495 4.01 5.495 3 6 C2.34 5.67 1.68 5.34 1 5 C-0.44848582 4.91657841 -1.90070869 4.89267139 -3.3515625 4.90234375 C-4.62773438 4.90717773 -4.62773438 4.90717773 -5.9296875 4.91210938 C-6.81914063 4.92048828 -7.70859375 4.92886719 -8.625 4.9375 C-9.97078125 4.94426758 -9.97078125 4.94426758 -11.34375 4.95117188 C-13.56256648 4.96297409 -15.78125018 4.97943845 -18 5 C-18 4.01 -18 3.02 -18 2 C-12.16271522 -0.71172371 -6.32735013 -0.83446487 0 0 Z " fill="#1E1815" transform="translate(112,24)"/>
<path d="M0 0 C0 0.66 0 1.32 0 2 C-0.69971924 2.3623877 -1.39943848 2.72477539 -2.12036133 3.09814453 C-5.35170407 4.77255064 -8.5821052 6.44876581 -11.8125 8.125 C-12.91271484 8.69476563 -14.01292969 9.26453125 -15.14648438 9.8515625 C-16.23896484 10.41875 -17.33144531 10.9859375 -18.45703125 11.5703125 C-19.54580566 12.13524414 -20.63458008 12.70017578 -21.75634766 13.28222656 C-25.84054957 15.44513825 -29.85803998 17.71922979 -33.86206055 20.02685547 C-34.56758057 20.34799316 -35.27310059 20.66913086 -36 21 C-36.66 20.67 -37.32 20.34 -38 20 C-36.98800537 19.410979 -36.98800537 19.410979 -35.95556641 18.81005859 C-32.84498043 16.99905362 -29.73498747 15.18703256 -26.625 13.375 C-25.56410156 12.75753906 -24.50320312 12.14007813 -23.41015625 11.50390625 C-22.35957031 10.89160156 -21.30898437 10.27929688 -20.2265625 9.6484375 C-18.65890137 8.73723145 -18.65890137 8.73723145 -17.05957031 7.80761719 C-15.0652476 6.62935631 -13.08444192 5.42781501 -11.12011719 4.20019531 C-10.24258789 3.65202148 -9.36505859 3.10384766 -8.4609375 2.5390625 C-7.69313965 2.04873535 -6.9253418 1.5584082 -6.13427734 1.05322266 C-4 0 -4 0 0 0 Z " fill="#CD6E88" transform="translate(141,104)"/>
<path d="M0 0 C7.56159465 3.6302346 14.79707766 7.70547414 22 12 C20.125 13.0625 20.125 13.0625 18 14 C17.34 13.67 16.68 13.34 16 13 C13.90178785 13.39938767 13.90178785 13.39938767 12 14 C12 14.66 12 15.32 12 16 C10.68 16.33 9.36 16.66 8 17 C8.66 16.01 9.32 15.02 10 14 C10.15811388 10.94729537 10.15811388 10.94729537 9 8 C6.15007835 6.24169437 6.15007835 6.24169437 3 5 C1.125 3.4375 1.125 3.4375 0 2 C0 1.34 0 0.68 0 0 Z " fill="#BC860C" transform="translate(109,76)"/>
<path d="M0 0 C2.99136793 0.61187071 5.28404517 1.13868465 7.2890625 3.55078125 C9.31672975 6.95697048 10 8.99391302 10 13 C12.31 13 14.62 13 17 13 C14.57688029 15.93325018 12.68297866 16.3791378 9 17 C7.49743011 14.35559624 5.9978388 11.70958148 4.5 9.0625 C4.07074219 8.30775391 3.64148438 7.55300781 3.19921875 6.77539062 C2.79316406 6.05673828 2.38710937 5.33808594 1.96875 4.59765625 C1.59169922 3.93258057 1.21464844 3.26750488 0.82617188 2.58227539 C0 1 0 1 0 0 Z " fill="#1F130F" transform="translate(146,76)"/>
<path d="M0 0 C6.30776225 0.91988199 9.33803792 3.69873436 13.3984375 8.53515625 C15.73867098 12.13683265 16 14.74753839 16 19 C12.15821599 15.26356655 8.63718927 11.34909673 5.1875 7.25 C4.68541016 6.66089844 4.18332031 6.07179687 3.66601562 5.46484375 C0 1.12547832 0 1.12547832 0 0 Z " fill="#2B2F2E" transform="translate(37,125)"/>
<path d="M0 0 C1 2 1 2 0.22265625 4.3828125 C-0.35162109 5.74019531 -0.35162109 5.74019531 -0.9375 7.125 C-1.31777344 8.03507812 -1.69804687 8.94515625 -2.08984375 9.8828125 C-2.39019531 10.58148438 -2.69054687 11.28015625 -3 12 C-3.66 10.68 -4.32 9.36 -5 8 C-6.98 8.99 -6.98 8.99 -9 10 C-9 9.34 -9 8.68 -9 8 C-10.98 8.33 -12.96 8.66 -15 9 C-15 9.66 -15 10.32 -15 11 C-16.98 11.33 -18.96 11.66 -21 12 C-19.30443987 8.60887975 -15.48773872 7.59381608 -12.1875 6 C-11.09985352 5.46632813 -11.09985352 5.46632813 -9.99023438 4.921875 C-8.63049335 4.25506696 -7.26953441 3.59073265 -5.90698242 2.9296875 C-3.93116956 1.96644395 -1.96456057 0.98596128 0 0 Z " fill="#951C3D" transform="translate(169,90)"/>
<path d="M0 0 C0.66 0 1.32 0 2 0 C2 11.88 2 23.76 2 36 C1.01 35.34 0.02 34.68 -1 34 C-1.19560293 31.36751855 -1.20770245 28.98767094 -1.07421875 26.3671875 C-1.04777786 25.61535187 -1.02133698 24.86351624 -0.99409485 24.08889771 C-0.90620028 21.68346885 -0.79710197 19.27952817 -0.6875 16.875 C-0.62425458 15.24614737 -0.56238807 13.61724057 -0.50195312 11.98828125 C-0.35063926 7.99138279 -0.18030187 3.99569151 0 0 Z " fill="#5BC2AB" transform="translate(70,124)"/>
<path d="M0 0 C0.33 0.99 0.66 1.98 1 3 C0.67 3.66 0.34 4.32 0 5 C0.66 5 1.32 5 2 5 C1.18847646 11.81679777 -1.01843978 16.32035252 -6 21 C-7.35156675 22.65191491 -8.68962066 24.31522656 -10 26 C-10.66 25.67 -11.32 25.34 -12 25 C-11.42765625 24.38769531 -10.8553125 23.77539062 -10.265625 23.14453125 C-7.23924724 18.94412764 -5.58751081 14.50245887 -3.75 9.6875 C-3.38648438 8.75615234 -3.02296875 7.82480469 -2.6484375 6.86523438 C-1.75769011 4.57976409 -0.87518363 2.29146515 0 0 Z " fill="#160205" transform="translate(162,112)"/>
<path d="M0 0 C0.33 0 0.66 0 1 0 C1.33 17.16 1.66 34.32 2 52 C3.32 52.66 4.64 53.32 6 54 C4.515 54.495 4.515 54.495 3 55 C2.01 54.34 1.02 53.68 0 53 C-0.36076355 50.74740601 -0.36076355 50.74740601 -0.34057617 47.90771484 C-0.34034958 46.84676605 -0.34012299 45.78581726 -0.33988953 44.69271851 C-0.32440567 43.54373077 -0.30892181 42.39474304 -0.29296875 41.2109375 C-0.28660149 39.45059677 -0.28660149 39.45059677 -0.28010559 37.6546936 C-0.26326976 33.89456546 -0.22560777 30.13496703 -0.1875 26.375 C-0.17245954 23.83073689 -0.15877003 21.2864654 -0.14648438 18.7421875 C-0.11335017 12.49460995 -0.06310206 6.24734281 0 0 Z " fill="#1D0201" transform="translate(79,69)"/>
<path d="M0 0 C-1 3 -1 3 -3.21484375 4.16796875 C-4.11332031 4.50441406 -5.01179688 4.84085938 -5.9375 5.1875 C-6.83339844 5.53167969 -7.72929688 5.87585938 -8.65234375 6.23046875 C-11 7 -11 7 -13 7 C-13 7.66 -13 8.32 -13 9 C-16 10 -16 10 -18.1875 9.0625 C-18.785625 8.711875 -19.38375 8.36125 -20 8 C-17.42474285 6.46382917 -14.841326 4.94611799 -12.25 3.4375 C-11.15558594 2.78104492 -11.15558594 2.78104492 -10.0390625 2.11132812 C-9.33007812 1.70205078 -8.62109375 1.29277344 -7.890625 0.87109375 C-6.91657715 0.29766235 -6.91657715 0.29766235 -5.92285156 -0.28735352 C-3.5589199 -1.16347293 -2.34057154 -0.82193222 0 0 Z " fill="#BE385D" transform="translate(105,126)"/>
<path d="M0 0 C0.99 0 1.98 0 3 0 C2.46744565 4.52671196 0.78440128 7.4200555 -2 11 C-3.32520503 11.68268138 -4.65812182 12.3507041 -6 13 C-7.0409066 14.64142963 -8.04504326 16.30712215 -9 18 C-9.66 18.33 -10.32 18.66 -11 19 C-9.52852919 15.01967146 -7.64511094 11.47100488 -5.5 7.8125 C-4.8915625 6.76707031 -4.283125 5.72164062 -3.65625 4.64453125 C-2 2 -2 2 0 0 Z " fill="#282F2D" transform="translate(68,45)"/>
<path d="M0 0 C3.77545388 1.09068668 6.47043472 1.9083091 9 5 C7.68 5.33 6.36 5.66 5 6 C6.32 7.32 7.64 8.64 9 10 C5.97045076 9.08408976 3.37880157 8.25779551 0.75 6.46875 C-2.70157562 4.62529484 -5.42012889 4.4943865 -9.3125 4.3125 C-10.56675781 4.24675781 -11.82101563 4.18101563 -13.11328125 4.11328125 C-14.06589844 4.07589844 -15.01851563 4.03851562 -16 4 C-16 3.67 -16 3.34 -16 3 C-10.66666667 3 -5.33333333 3 0 3 C0 2.01 0 1.02 0 0 Z " fill="#664B13" transform="translate(114,25)"/>
<path d="M0 0 C0.33 1.98 0.66 3.96 1 6 C0.67 5.34 0.34 4.68 0 4 C-0.969375 4.66 -1.93875 5.32 -2.9375 6 C-7.25589579 8.51316476 -11.12632275 8.3978512 -16 8 C-14.58951473 5.17902947 -12.92599628 5.14495507 -10 4 C-8.78324358 3.30623537 -7.57514457 2.59712088 -6.375 1.875 C-3 0 -3 0 0 0 Z " fill="#241C1C" transform="translate(172,81)"/>
<path d="M0 0 C4.24232126 2.77725536 8.32701422 5.69152185 12.375 8.75 C12.92027344 9.16121094 13.46554688 9.57242188 14.02734375 9.99609375 C15.35268356 10.9959115 16.67650492 11.99774159 18 13 C17.01 13.495 17.01 13.495 16 14 C14.02880859 13.10375977 14.02880859 13.10375977 11.6484375 11.69140625 C10.79765625 11.19189453 9.946875 10.69238281 9.0703125 10.17773438 C8.18085938 9.64470703 7.29140625 9.11167969 6.375 8.5625 C5.4778125 8.03333984 4.580625 7.50417969 3.65625 6.95898438 C1.43316461 5.646418 -0.78522645 4.32652747 -3 3 C-2.01 2.67 -1.02 2.34 0 2 C0 1.34 0 0.68 0 0 Z " fill="#ECAE23" transform="translate(130,75)"/>
<path d="M0 0 C0.99 0 1.98 0 3 0 C3.0825 0.61875 3.165 1.2375 3.25 1.875 C3.79994195 4.1765144 3.79994195 4.1765144 6 5.125 C6.66 5.41375 7.32 5.7025 8 6 C8.33 6.66 8.66 7.32 9 8 C6 9 6 9 3 9 C4.65 10.65 6.3 12.3 8 14 C4.54074837 12.7508258 1.85306797 11.32472205 -1 9 C-0.34 7.02 0.32 5.04 1 3 C0.34 3 -0.32 3 -1 3 C-0.67 2.01 -0.34 1.02 0 0 Z " fill="#EEAD1D" transform="translate(89,44)"/>
<path d="M0 0 C3.42771135 3.9173844 8 9.52151811 8 15 C4.94334338 14.09126425 3.27694297 13.32469175 1.1875 10.875 C-0.40268838 7.02507023 -0.2108574 4.14686216 0 0 Z " fill="#2E2A29" transform="translate(143,63)"/>
<path d="M0 0 C0.33 0 0.66 0 1 0 C1.02578125 0.68964844 1.0515625 1.37929687 1.078125 2.08984375 C1.48540909 8.83780068 2.83114418 14.03075996 6 20 C3.6875 19.8125 3.6875 19.8125 1 19 C-2 14.96551724 -2 14.96551724 -2 12 C-1.34 12 -0.68 12 0 12 C0 8.04 0 4.08 0 0 Z " fill="#152620" transform="translate(36,106)"/>
<path d="M0 0 C-0.99 0.33 -1.98 0.66 -3 1 C-3.73323796 3.01508358 -3.73323796 3.01508358 -4 5 C-3.34 5 -2.68 5 -2 5 C-1.67 5.99 -1.34 6.98 -1 8 C-5.10958767 6.54955729 -8.43258745 4.48889248 -12 2 C-7.89783794 -0.73477471 -4.73617773 -1.57872591 0 0 Z " fill="#424445" transform="translate(58,33)"/>
<path d="M0 0 C0.66 0 1.32 0 2 0 C0.64002446 6.04433574 -2.85651794 9.63494136 -7 14 C-7.66 13.01 -8.32 12.02 -9 11 C-8.60167969 10.54109375 -8.20335937 10.0821875 -7.79296875 9.609375 C-4.39984291 5.68325173 -4.39984291 5.68325173 -1.25 1.5625 C-0.8375 1.046875 -0.425 0.53125 0 0 Z " fill="#413E3D" transform="translate(158,129)"/>
<path d="M0 0 C0.33 0.66 0.66 1.32 1 2 C0.67 2.99 0.34 3.98 0 5 C-0.99 5 -1.98 5 -3 5 C-3.33 6.98 -3.66 8.96 -4 11 C-5.32 11.33 -6.64 11.66 -8 12 C-8.68707555 9.50935112 -9 7.62113708 -9 5 C-6.36 4.67 -3.72 4.34 -1 4 C-0.67 2.68 -0.34 1.36 0 0 Z " fill="#661329" transform="translate(158,120)"/>
<path d="M0 0 C1.98 0.66 3.96 1.32 6 2 C5.01 2.66 4.02 3.32 3 4 C2.48913139 7.05129723 2.48913139 7.05129723 2.4375 10.5 C2.20780712 16.79219288 2.20780712 16.79219288 0 19 C0 12.73 0 6.46 0 0 Z " fill="#000502" transform="translate(73,142)"/>
<path d="M0 0 C-0.99 0.66 -1.98 1.32 -3 2 C-1.35 2.33 0.3 2.66 2 3 C2 3.66 2 4.32 2 5 C-3.94 5.33 -9.88 5.66 -16 6 C-16 5.67 -16 5.34 -16 5 C-12.7 4.34 -9.4 3.68 -6 3 C-6.99 2.01 -7.98 1.02 -9 0 C-5.62182575 -0.84454356 -3.32534757 -1.10844919 0 0 Z " fill="#735D2F" transform="translate(97,26)"/>
<path d="M0 0 C5.77372322 2.83458444 11.45217559 5.74366828 17 9 C14 10 14 10 10 10 C9.34 9.01 8.68 8.02 8 7 C6.33927151 6.31867549 4.672233 5.65257873 3 5 C1.1875 3.5 1.1875 3.5 0 2 C0 1.34 0 0.68 0 0 Z " fill="#B6821F" transform="translate(109,76)"/>
<path d="M0 0 C5.94 0 11.88 0 18 0 C18 0.33 18 0.66 18 1 C15.36 1 12.72 1 10 1 C10 1.66 10 2.32 10 3 C7.29120665 4.35439668 4.99066732 4.06501451 2 4 C1.34 2.68 0.68 1.36 0 0 Z " fill="#260B10" transform="translate(74,142)"/>
<path d="M0 0 C0.99 0.33 1.98 0.66 3 1 C2.07544441 2.508013 1.1349253 4.00624917 0.1875 5.5 C-0.33457031 6.3353125 -0.85664062 7.170625 -1.39453125 8.03125 C-1.92433594 8.6809375 -2.45414063 9.330625 -3 10 C-3.99 10 -4.98 10 -6 10 C-6.33 10.99 -6.66 11.98 -7 13 C-7.33 11.68 -7.66 10.36 -8 9 C-6.8553125 8.1646875 -6.8553125 8.1646875 -5.6875 7.3125 C-3.03859112 5.03320631 -1.61711178 3.06400128 0 0 Z " fill="#0D1A17" transform="translate(63,56)"/>
<path d="M0 0 C5.38732394 -0.35915493 5.38732394 -0.35915493 7.8125 1.0625 C9.55729603 3.90927247 9.69042148 6.71846765 10 10 C6.66666667 6.66666667 3.33333333 3.33333333 0 0 Z " fill="#181310" transform="translate(118,30)"/>
<path d="M0 0 C2.90802461 2.21928194 4.95312762 3.92969143 7 7 C7 8.32 7 9.64 7 11 C3.17131081 9.54773858 1.7461047 7.66681987 0 4 C0 2.68 0 1.36 0 0 Z " fill="#101B18" transform="translate(52,138)"/>
<path d="M0 0 C-5.93617021 4.94680851 -5.93617021 4.94680851 -9 6 C-11.75 5.625 -11.75 5.625 -14 5 C-9.00421382 1.21009324 -6.42616563 -0.24249682 0 0 Z " fill="#D6B77D" transform="translate(98,118)"/>
<path d="M0 0 C0.66 0.33 1.32 0.66 2 1 C-0.64738916 2.4606285 -1.89448334 3 -5 3 C-5 3.66 -5 4.32 -5 5 C-13.261959 9.59225513 -13.261959 9.59225513 -18 9 C-17.34 8.67 -16.68 8.34 -16 8 C-16 7.34 -16 6.68 -16 6 C-15.43152344 5.81824219 -14.86304687 5.63648437 -14.27734375 5.44921875 C-10.45114968 4.2036297 -6.7235839 2.92606584 -3.0625 1.25 C-2.051875 0.8375 -1.04125 0.425 0 0 Z " fill="#FCC142" transform="translate(110,108)"/>
<path d="M0 0 C1.21236328 0.02707031 1.21236328 0.02707031 2.44921875 0.0546875 C3.37154297 0.08949219 3.37154297 0.08949219 4.3125 0.125 C3.9825 1.115 3.6525 2.105 3.3125 3.125 C-3.6875 4.125 -3.6875 4.125 -10.6875 5.125 C-7.31022216 1.58689941 -4.97816845 -0.14429474 0 0 Z " fill="#A42246" transform="translate(87.6875,134.875)"/>
<path d="M0 0 C0 0.66 0 1.32 0 2 C-4.95 4.31 -9.9 6.62 -15 9 C-13.74990946 5.24972838 -12.52798171 4.79331273 -9.1875 2.8125 C-8.31480469 2.28269531 -7.44210938 1.75289063 -6.54296875 1.20703125 C-4 0 -4 0 0 0 Z " fill="#DA7792" transform="translate(141,104)"/>
<path d="M0 0 C2.475 0.495 2.475 0.495 5 1 C7 4 7 4 6.75 6.625 C6.5025 7.40875 6.255 8.1925 6 9 C5.01 9.495 5.01 9.495 4 10 C2.68 6.7 1.36 3.4 0 0 Z " fill="#DEB256" transform="translate(113,82)"/>
<path d="M0 0 C3.50584421 3.15603714 5.58994602 6.47935195 7.8125 10.625 C8.43769531 11.77226563 9.06289062 12.91953125 9.70703125 14.1015625 C10.13371094 15.05804688 10.56039062 16.01453125 11 17 C10.67 17.66 10.34 18.32 10 19 C9.34 18.01 8.68 17.02 8 16 C7.01 15.34 6.02 14.68 5 14 C4.12109375 12.01171875 4.12109375 12.01171875 3.4375 9.6875 C2.42573725 6.38595839 1.33698997 3.18820685 0 0 Z " fill="#664D11" transform="translate(123,35)"/>
<path d="M0 0 C0.33 0.66 0.66 1.32 1 2 C0.09239638 4.59732225 -0.87067892 7.09450975 -1.9375 9.625 C-2.22818359 10.33140625 -2.51886719 11.0378125 -2.81835938 11.765625 C-3.53867488 13.51327573 -4.26845694 15.25701915 -5 17 C-6.0625 15.125 -6.0625 15.125 -7 13 C-6.67 12.34 -6.34 11.68 -6 11 C-5.34 11 -4.68 11 -4 11 C-4.33 9.02 -4.66 7.04 -5 5 C-4.01 5 -3.02 5 -2 5 C-1.34 3.35 -0.68 1.7 0 0 Z " fill="#67142C" transform="translate(165,102)"/>
<path d="M0 0 C2.69629999 2.38186267 4.04003203 4.82188636 5.5625 8.0625 C6.88650724 10.87137517 7.79645043 12.79645043 10 15 C9.01 15.33 8.02 15.66 7 16 C4 11.375 4 11.375 4 8 C2.68 7.34 1.36 6.68 0 6 C0 4.02 0 2.04 0 0 Z " fill="#855F14" transform="translate(147,79)"/>
<path d="M0 0 C0.94875 0.350625 1.8975 0.70125 2.875 1.0625 C5.87060172 2.35026777 5.87060172 2.35026777 8 1 C8 3.97 8 6.94 8 10 C4.71211176 6.88983545 2.16264012 3.98381075 0 0 Z " fill="#13B58F" transform="translate(61,147)"/>
<path d="M0 0 C3.32643967 2.98232523 5.29152862 5.86370087 7 10 C6.67 10.66 6.34 11.32 6 12 C3.5625 10.9375 3.5625 10.9375 1 9 C0.29411258 5.90495518 0 3.16313788 0 0 Z " fill="#363331" transform="translate(127,34)"/>
<path d="M0 0 C1.15625 3.6875 1.15625 3.6875 -0.25 6.5 C-0.8275 7.325 -1.405 8.15 -2 9 C-2.515625 9.763125 -3.03125 10.52625 -3.5625 11.3125 C-4.036875 11.869375 -4.51125 12.42625 -5 13 C-5.66 13 -6.32 13 -7 13 C-5.35821735 8.22390502 -2.73453298 4.20617096 0 0 Z " fill="#0A6953" transform="translate(48,84)"/>
<path d="M0 0 C2.64752004 2.57784846 4.94432065 4.91648098 7 8 C5.68 8.33 4.36 8.66 3 9 C1.35 7.02 -0.3 5.04 -2 3 C-1.34 3 -0.68 3 0 3 C0 2.01 0 1.02 0 0 Z " fill="#1A2926" transform="translate(59,146)"/>
<path d="M0 0 C0.99 0.33 1.98 0.66 3 1 C3 1.66 3 2.32 3 3 C5.31 3 7.62 3 10 3 C7.60490662 5.89932357 5.68754757 6.50168276 2 7 C1.34 4.69 0.68 2.38 0 0 Z " fill="#0F0404" transform="translate(153,86)"/>
<path d="M0 0 C0.48210937 0.42152344 0.96421875 0.84304687 1.4609375 1.27734375 C2.09257812 1.82519531 2.72421875 2.37304688 3.375 2.9375 C4.00148437 3.48277344 4.62796875 4.02804688 5.2734375 4.58984375 C6.95632334 6.06958624 6.95632334 6.06958624 9 7 C9.72159424 8.64363134 10.39351421 10.31050386 11 12 C7.05719978 10.68573326 4.62022641 9.25269486 2 6 C0.75 2.75 0.75 2.75 0 0 Z " fill="#BF870F" transform="translate(142,80)"/>
<path d="M0 0 C2.02045442 0.60183749 4.02111039 1.27306096 6 2 C7.35439668 4.70879335 7.06501451 7.00933268 7 10 C6.34 10 5.68 10 5 10 C3.35 6.7 1.7 3.4 0 0 Z " fill="#15100B" transform="translate(129,44)"/>
<path d="M0 0 C0.66 1.32 1.32 2.64 2 4 C2.66 4 3.32 4 4 4 C4.33 5.65 4.66 7.3 5 9 C4.01 9.495 4.01 9.495 3 10 C1.99406757 8.8803014 0.9954151 7.7540588 0 6.625 C-0.556875 5.99851563 -1.11375 5.37203125 -1.6875 4.7265625 C-3 3 -3 3 -3 1 C-2.01 0.67 -1.02 0.34 0 0 Z " fill="#0D8A6E" transform="translate(49,128)"/>
<path d="M0 0 C4.875 2.75 4.875 2.75 6 5 C4.68 5 3.36 5 2 5 C2 5.66 2 6.32 2 7 C-0.475 6.01 -0.475 6.01 -3 5 C-2.01 3.35 -1.02 1.7 0 0 Z " fill="#F8B21A" transform="translate(107,58)"/>
<path d="M0 0 C1.67542976 0.28604898 3.34385343 0.61781233 5 1 C5.33 3.64 5.66 6.28 6 9 C3.35247996 6.42215154 1.05567935 4.08351902 -1 1 C-0.67 0.67 -0.34 0.34 0 0 Z " fill="#323B3A" transform="translate(63,154)"/>
<path d="M0 0 C2 0 2 0 4.5 2.375 C5.325 3.24125 6.15 4.1075 7 5 C7.66 5.66 8.32 6.32 9 7 C2.25 6.125 2.25 6.125 0 5 C0 3.35 0 1.7 0 0 Z " fill="#C7850D" transform="translate(82,110)"/>
<path d="M0 0 C3.63 1.98 7.26 3.96 11 6 C11 6.99 11 7.98 11 9 C7.37 7.02 3.74 5.04 0 3 C0 2.01 0 1.02 0 0 Z " fill="#E1A326" transform="translate(97,69)"/>
<path d="M0 0 C6.52307692 0.61538462 6.52307692 0.61538462 8.9375 2.5625 C9.288125 3.036875 9.63875 3.51125 10 4 C7.2780754 5.3609623 5.8168043 4.70366248 2.875 4.0625 C1.96492188 3.86785156 1.05484375 3.67320313 0.1171875 3.47265625 C-0.58148438 3.31667969 -1.28015625 3.16070312 -2 3 C-1.34 2.01 -0.68 1.02 0 0 Z " fill="#C58724" transform="translate(86,65)"/>
<path d="M0 0 C0 0.99 0 1.98 0 3 C-3 5 -3 5 -7 5 C-7 5.66 -7 6.32 -7 7 C-8.98 7.33 -10.96 7.66 -13 8 C-11.47306036 4.94612072 -8.96382675 4.34037927 -5.9375 2.875 C-4.83277344 2.33617188 -3.72804687 1.79734375 -2.58984375 1.2421875 C-1.73519531 0.83226563 -0.88054687 0.42234375 0 0 Z " fill="#9A2446" transform="translate(161,94)"/>
<path d="M0 0 C1 2 1 2 0.36328125 4.12890625 C0.01652344 4.93199219 -0.33023438 5.73507813 -0.6875 6.5625 C-1.02136719 7.36816406 -1.35523438 8.17382812 -1.69921875 9.00390625 C-3 11 -3 11 -5.14453125 11.77734375 C-6.06298828 11.88755859 -6.06298828 11.88755859 -7 12 C-6.02296079 10.1863523 -5.04330895 8.37411183 -4.0625 6.5625 C-3.51722656 5.55316406 -2.97195312 4.54382813 -2.41015625 3.50390625 C-1 1 -1 1 0 0 Z " fill="#108268" transform="translate(58,68)"/>
<path d="M0 0 C1.32 0.66 2.64 1.32 4 2 C3.34 3.65 2.68 5.3 2 7 C1.01 7 0.02 7 -1 7 C-0.67 4.69 -0.34 2.38 0 0 Z " fill="#039473" transform="translate(47,122)"/>
<path d="M0 0 C0.66 0 1.32 0 2 0 C1.01 3.3 0.02 6.6 -1 10 C-1.99 10 -2.98 10 -4 10 C-3.34 8.02 -2.68 6.04 -2 4 C-1.34 4 -0.68 4 0 4 C-0.33 3.01 -0.66 2.02 -1 1 C-0.67 0.67 -0.34 0.34 0 0 Z " fill="#3A3939" transform="translate(166,107)"/>
<path d="M0 0 C2 3 2 3 2 6 C1.34 6.66 0.68 7.32 0 8 C0 8.66 0 9.32 0 10 C-0.99 10.33 -1.98 10.66 -3 11 C-2.44894091 7.0507432 -1.61064629 3.65079826 0 0 Z " fill="#120204" transform="translate(166,101)"/>
<path d="M0 0 C3.77545388 1.09068668 6.47043472 1.9083091 9 5 C6 6 6 6 2.8125 4.5625 C1.884375 4.046875 0.95625 3.53125 0 3 C0 2.01 0 1.02 0 0 Z " fill="#3D3D3C" transform="translate(114,25)"/>
<path d="M0 0 C0.66 0.33 1.32 0.66 2 1 C2.49230769 7.4 2.49230769 7.4 0 10.4375 C-0.99 11.2109375 -0.99 11.2109375 -2 12 C-2.33 10.68 -2.66 9.36 -3 8 C-2.34 8 -1.68 8 -1 8 C-0.67 5.36 -0.34 2.72 0 0 Z " fill="#A7781E" transform="translate(131,89)"/>
<path d="M0 0 C5.52628901 1.19194469 8.17819158 2.5991297 12 7 C7.39104317 5.68315519 3.85859765 3.84801255 0 1 C0 0.67 0 0.34 0 0 Z " fill="#D9A435" transform="translate(136,82)"/>
<path d="M0 0 C4.16138263 -0.08159574 7.9472484 0.01751476 12 1 C12 1.66 12 2.32 12 3 C11.31292969 2.91621094 10.62585938 2.83242187 9.91796875 2.74609375 C9.01691406 2.64425781 8.11585937 2.54242188 7.1875 2.4375 C6.29417969 2.33308594 5.40085937 2.22867188 4.48046875 2.12109375 C1.86624428 1.84341291 1.86624428 1.84341291 -1 3 C-0.67 2.01 -0.34 1.02 0 0 Z " fill="#FAC44C" transform="translate(85,68)"/>
<path d="M0 0 C1.98 0.495 1.98 0.495 4 1 C3.67 2.32 3.34 3.64 3 5 C1.68 4.67 0.36 4.34 -1 4 C-0.67 2.68 -0.34 1.36 0 0 Z " fill="#965464" transform="translate(150,127)"/>
<path d="M0 0 C1.45922693 0.11409593 2.91740598 0.24165544 4.375 0.375 C5.59316406 0.47941406 5.59316406 0.47941406 6.8359375 0.5859375 C9 1 9 1 11 3 C7.7 3.33 4.4 3.66 1 4 C0.67 2.68 0.34 1.36 0 0 Z " fill="#DCA946" transform="translate(83,115)"/>
<path d="M0 0 C0.33 0 0.66 0 1 0 C1.07654536 4.51617599 1.10228696 8.59085217 0 13 C-0.99 13 -1.98 13 -3 13 C-2.85691406 12.43796875 -2.71382813 11.8759375 -2.56640625 11.296875 C-1.98879098 8.95454547 -1.45716693 6.60582341 -0.9375 4.25 C-0.76089844 3.45078125 -0.58429688 2.6515625 -0.40234375 1.828125 C-0.26957031 1.22484375 -0.13679688 0.6215625 0 0 Z " fill="#EFA80E" transform="translate(116,94)"/>
<path d="M0 0 C2.97 1.65 5.94 3.3 9 5 C8.67 5.99 8.34 6.98 8 8 C7.01 8.33 6.02 8.66 5 9 C5 7.68 5 6.36 5 5 C2.53673288 3.3553326 2.53673288 3.3553326 0 2 C0 1.34 0 0.68 0 0 Z " fill="#1E0901" transform="translate(145,88)"/>
<path d="M0 0 C5.52628901 1.19194469 8.17819158 2.5991297 12 7 C7.69235185 5.43358249 3.93828536 3.31663844 0 1 C0 0.67 0 0.34 0 0 Z " fill="#E0B04D" transform="translate(115,70)"/>
<path d="M0 0 C3.0916909 2.52956528 3.90931332 5.22454612 5 9 C4.01 8.67 3.02 8.34 2 8 C2 7.01 2 6.02 2 5 C1.01 4.67 0.02 4.34 -1 4 C-0.67 2.68 -0.34 1.36 0 0 Z " fill="#434347" transform="translate(136,50)"/>
<path d="M0 0 C0.66 0 1.32 0 2 0 C1.01 3.3 0.02 6.6 -1 10 C-1.66 9.34 -2.32 8.68 -3 8 C-2.60495559 5.0371669 -1.40182371 2.61673759 0 0 Z " fill="#454545" transform="translate(162,118)"/>
<path d="M0 0 C-0.33 0.99 -0.66 1.98 -1 3 C-3.64 3 -6.28 3 -9 3 C-8 1 -8 1 -5.625 -0.1875 C-3 -1 -3 -1 0 0 Z " fill="#4A4B4D" transform="translate(165,86)"/>
<path d="M0 0 C0.99 0.33 1.98 0.66 3 1 C3.6875 3.0625 3.6875 3.0625 4 5 C3.34 5 2.68 5 2 5 C1.67 5.99 1.34 6.98 1 8 C0.26919734 6.02253397 -0.39421747 4.01927511 -1 2 C-0.67 1.34 -0.34 0.68 0 0 Z " fill="#38332B" transform="translate(152,82)"/>
<path d="M0 0 C0.99 0.66 1.98 1.32 3 2 C2 5 2 5 -0.0625 6.1875 C-0.701875 6.455625 -1.34125 6.72375 -2 7 C-1.125 1.125 -1.125 1.125 0 0 Z " fill="#CA8E17" transform="translate(115,50)"/>
<path d="M0 0 C0.99 0.33 1.98 0.66 3 1 C3 3.62113708 2.68707555 5.50935112 2 8 C1.67 7.01 1.34 6.02 1 5 C0.34 5 -0.32 5 -1 5 C-0.67 3.35 -0.34 1.7 0 0 Z " fill="#080401" transform="translate(55,33)"/>
<path d="M0 0 C-0.6875 2.4375 -0.6875 2.4375 -2 5 C-4.625 5.8125 -4.625 5.8125 -7 6 C-5.81636731 2.44910192 -3.99368042 0 0 0 Z " fill="#131918" transform="translate(50,80)"/>
<path d="M0 0 C0.33 1.32 0.66 2.64 1 4 C0.34 4 -0.32 4 -1 4 C-1.33 5.65 -1.66 7.3 -2 9 C-2.99 9.33 -3.98 9.66 -5 10 C-3.66511872 6.40608886 -2.03977277 3.24509304 0 0 Z " fill="#158E71" transform="translate(71,47)"/>
<path d="M0 0 C0.66 0.66 1.32 1.32 2 2 C-2.95 4.475 -2.95 4.475 -8 7 C-5.73826764 2.47653527 -4.46594067 1.94171334 0 0 Z " fill="#22080C" transform="translate(141,100)"/>
<path d="M0 0 C1.65 0 3.3 0 5 0 C4.67 1.32 4.34 2.64 4 4 C2.68 3.67 1.36 3.34 0 3 C0 2.01 0 1.02 0 0 Z M-2 3 C-1.01 3.495 -1.01 3.495 0 4 C-0.99 4.495 -0.99 4.495 -2 5 C-2 4.34 -2 3.68 -2 3 Z " fill="#0F9F80" transform="translate(50,86)"/>
<path d="M0 0 C1.32 0.33 2.64 0.66 4 1 C4 1.66 4 2.32 4 3 C-0.455 3.495 -0.455 3.495 -5 4 C-3.68 3.67 -2.36 3.34 -1 3 C-0.67 2.01 -0.34 1.02 0 0 Z " fill="#120800" transform="translate(88,27)"/>
<path d="M0 0 C0.66 0.33 1.32 0.66 2 1 C2.59355614 3.64860427 2.74209269 6.29197322 3 9 C0.9375 7.3125 0.9375 7.3125 -1 5 C-0.75 2.25 -0.75 2.25 0 0 Z " fill="#333D38" transform="translate(50,135)"/>
<path d="M0 0 C1.32 0.66 2.64 1.32 4 2 C3.01 2.495 3.01 2.495 2 3 C2 3.66 2 4.32 2 5 C1.01 4.67 0.02 4.34 -1 4 C-0.67 2.68 -0.34 1.36 0 0 Z " fill="#009773" transform="translate(54,132)"/>
<path d="M0 0 C1.65 0 3.3 0 5 0 C4.01 0.495 4.01 0.495 3 1 C1.86649466 3.01669827 1.86649466 3.01669827 1 5 C0.34 5 -0.32 5 -1 5 C-0.67 3.35 -0.34 1.7 0 0 Z " fill="#7C132E" transform="translate(135,128)"/>
</svg>
